<?xml version="1.0" standalone="no"?>
<!DOCTYPE svg PUBLIC "-//W3C//DTD SVG 1.1//EN" "http://www.w3.org/Graphics/SVG/1.1/DTD/svg11.dtd" >
<svg xmlns="http://www.w3.org/2000/svg">
<metadata></metadata>
<defs>
<font id="balticacitalic" horiz-adv-x="1077" >
<font-face units-per-em="2048" ascent="1638" descent="-410" />
<missing-glyph horiz-adv-x="477" />
<glyph horiz-adv-x="2048" />
<glyph horiz-adv-x="2048" />
<glyph unicode="&#xd;" horiz-adv-x="477" />
<glyph unicode=" "  horiz-adv-x="477" />
<glyph unicode="&#x09;" horiz-adv-x="477" />
<glyph unicode="&#xa0;" horiz-adv-x="477" />
<glyph unicode="!" horiz-adv-x="718" d="M127 68q0 18 6 45.5t20.5 53.5t40 44t66.5 18q4 0 17.5 -1t26.5 -9t24.5 -26.5t11.5 -51.5q0 -29 -9 -57.5t-25.5 -52t-41 -39t-57.5 -15.5q-41 0 -60.5 25t-19.5 66zM227 373l170 1032h213l-268 -1032h-115z" />
<glyph unicode="&#x22;" horiz-adv-x="808" d="M213 1010l39 452h194l-153 -452h-80zM575 1010l39 452h195l-154 -452h-80z" />
<glyph unicode="#" horiz-adv-x="1857" d="M258 352l27 121h393l65 309h-393l25 121h393l86 397h121l-86 -397h311l86 397h121l-86 -397h393l-24 -121h-394l-65 -309h393l-27 -121h-393l-84 -397h-121l84 397h-311l-84 -397h-121l84 397h-393zM799 473h311l66 309h-312z" />
<glyph unicode="$" horiz-adv-x="1079" d="M33 0l78 362h104l-8 -63q-4 -20 -2 -54t22.5 -68t66.5 -64.5t132 -44.5l121 571q-47 25 -91 46.5t-81 48t-64.5 62t-42.5 89.5q-10 35 -8 69.5t8 69.5q14 80 54 145.5t97.5 112.5t130.5 74.5t157 32.5l36 172h99l-37 -172q10 0 33.5 -4.5t54.5 -13.5t65.5 -27.5 t67.5 -47.5l18 -43h13l-4 47l14 70h107l-72 -336h-105l7 49q6 47 -12.5 88t-51.5 71t-74 46.5t-80 14.5l-108 -508q82 -35 149.5 -67t115.5 -71t73.5 -89t25.5 -122q0 -80 -36.5 -162.5t-105.5 -149t-169 -110.5t-227 -47l-47 -223h-99l50 228q-47 8 -80 17t-59.5 18.5 t-47 22.5t-39.5 32l-18 34h-12l2 -36l-15 -70h-106zM428 1032q0 -29 5 -52.5t21.5 -46t49.5 -46t86 -49.5l98 465q-49 -6 -96 -27t-84 -54.5t-58.5 -80.5t-21.5 -109zM522 63q102 6 168 42t102.5 87.5t51 105.5t14.5 97t-17.5 75t-48 55.5t-70.5 41t-85 33.5z" />
<glyph unicode="%" horiz-adv-x="2156" d="M516 -213l1184 1612l63 -41l-1185 -1616zM553 905q0 92 34 171t89 136.5t125.5 90t142.5 32.5q121 0 180.5 -74.5t59.5 -191.5q0 -92 -34 -172t-89 -138.5t-125 -91t-141 -32.5q-49 0 -93.5 16.5t-77 50t-52 83.5t-19.5 120zM700 874q0 -55 13.5 -85.5t32 -46t37 -18.5 t28.5 -3q55 0 98 37t71 94t42 126t14 132q0 18 -2 42t-13 45.5t-33.5 36.5t-61.5 15q-59 0 -101.5 -40t-70 -97t-41 -123t-13.5 -115zM1098 72q0 92 33.5 171t89 136t126 90t142.5 33q121 0 180.5 -75t59.5 -191q0 -92 -34 -172t-89.5 -138.5t-125 -91.5t-141.5 -33 q-49 0 -93 16.5t-76.5 50.5t-52 84t-19.5 120zM1245 41q0 -55 13.5 -86t32 -46t37 -18.5t28.5 -3.5q55 0 98 37t70.5 94.5t42 126t14.5 131.5q0 18 -2 42t-13.5 45.5t-34 37t-61.5 15.5q-59 0 -101 -40t-69.5 -97.5t-41 -123t-13.5 -114.5z" />
<glyph unicode="&#x26;" horiz-adv-x="1329" d="M88 272q0 35 10.5 93.5t52.5 128t124.5 145.5t228.5 145q-37 66 -60.5 130.5t-23.5 134.5q0 68 26.5 130t73.5 110t110.5 77t137.5 29q61 0 104 -18.5t70 -47.5t39 -67.5t12 -77.5q0 -45 -15 -95.5t-51 -99.5t-93.5 -95t-141.5 -85l244 -504q41 49 70.5 98.5t53 100.5 t41 108.5t36.5 122.5h155q-41 -143 -127 -278t-192 -230l78 -155h159l-14 -72h-311l-56 113q-16 -12 -33.5 -23.5t-33.5 -21.5q-98 -59 -175 -76t-143 -17q-100 0 -167.5 29t-109.5 74t-60.5 96t-18.5 98zM262 334q0 -47 16.5 -93t48 -82t78 -58.5t107.5 -22.5 q53 0 129 19.5t152 82.5l-261 539q-55 -31 -104 -69t-86 -85t-58.5 -104.5t-21.5 -126.5zM584 1110q0 -66 22.5 -119t55.5 -119q68 41 107.5 85t61 86t27.5 79t6 62q0 12 -3 33.5t-14 42t-31.5 35t-55.5 14.5q-39 0 -72 -17.5t-55.5 -46t-35.5 -64.5t-13 -71z" />
<glyph unicode="'" horiz-adv-x="446" d="M213 1010l39 452h194l-153 -452h-80z" />
<glyph unicode="(" horiz-adv-x="720" d="M219 76q0 68 15.5 172t40 218t55 223.5t59.5 187.5q29 76 73 157.5t99 155.5t119.5 131t136.5 84l-12 -57q-72 -68 -121 -149t-83 -161t-54.5 -153.5t-32.5 -128.5q-43 -193 -71.5 -330t-47 -237.5t-26 -172t-7.5 -131.5q0 -127 27 -191.5t47 -88.5l-12 -58 q-61 27 -101 85.5t-62.5 132t-32 154.5t-9.5 157z" />
<glyph unicode=")" horiz-adv-x="720" d="M47 -453l12 58q41 37 80 85t76 117.5t70.5 165t64.5 224.5q51 211 81 356t46.5 243.5t21.5 160t5 108.5q0 78 -13.5 144.5t-60.5 138.5l12 57q61 -29 100.5 -86t63 -131t31.5 -155t8 -156q0 -76 -15.5 -182.5t-40 -219.5t-55 -219t-59.5 -182q-27 -70 -71 -153 t-100 -157.5t-121.5 -134t-135.5 -82.5z" />
<glyph unicode="*" horiz-adv-x="851" d="M229 1176h205l64 194l63 -194h205l-166 -121l64 -195l-166 121l-166 -121l63 195z" />
<glyph unicode="+" horiz-adv-x="1521" d="M115 567v121h614v615h121v-615h614v-121h-614v-614h-121v614h-614z" />
<glyph unicode="," horiz-adv-x="538" d="M59 -264l107 506h188l-215 -506h-80z" />
<glyph unicode="-" horiz-adv-x="720" d="M168 453l31 145h463l-31 -145h-463z" />
<glyph unicode="." horiz-adv-x="538" d="M127 63q0 25 7 53.5t22.5 54.5t41 42t62.5 16q4 0 17.5 -1t26.5 -9t24.5 -26.5t11.5 -51.5q0 -29 -9 -57.5t-25.5 -52t-41 -39t-57.5 -15.5q-4 0 -17.5 1.5t-28 9.5t-24.5 25t-10 50z" />
<glyph unicode="/" horiz-adv-x="1118" d="M-37 -57l1045 1484h147l-1046 -1484h-146z" />
<glyph unicode="0" d="M129 418q0 109 20.5 222.5t58.5 222t92 204.5t121.5 169t149.5 115t172 42q102 0 165 -36t96.5 -96.5t45 -138.5t11.5 -161q0 -111 -19.5 -228t-57.5 -225.5t-92 -205.5t-123 -169t-151.5 -114t-175.5 -42q-80 0 -139 32t-97 90.5t-57.5 139.5t-19.5 179zM305 315 q0 -78 15.5 -126t39 -76.5t51 -39t54.5 -10.5q80 0 139.5 59.5t104.5 149.5t74.5 200t52.5 210q18 86 33.5 193.5t15.5 195.5q0 86 -20.5 133t-46 69.5t-51.5 28t-38 5.5q-66 0 -122 -46.5t-103 -124t-84 -179t-62.5 -212t-39 -222.5t-13.5 -208z" />
<glyph unicode="1" d="M272 0l15 72h155l234 1095l-160 -145l-43 61l318 287h110l-276 -1298h155l-16 -72h-492z" />
<glyph unicode="2" d="M39 0l426 414q39 39 111.5 106.5t142 155.5t122 192.5t52.5 216.5q0 55 -17.5 97.5t-46 70t-64.5 41t-75 13.5q-37 0 -76 -15.5t-72.5 -52.5t-63 -97.5t-48.5 -150.5h-197q18 88 63.5 162t111 127t149.5 83t176 30q70 0 132.5 -17.5t110.5 -52.5t76.5 -89t28.5 -130 q0 -115 -47 -209t-123.5 -181t-178 -174t-208.5 -188l-225 -209h530l33 150h103l-62 -293h-864z" />
<glyph unicode="3" d="M90 264q0 12 1 23.5t3 23.5h197q-6 -23 -6 -43q0 -39 12 -75.5t36.5 -65.5t62.5 -46.5t91 -17.5q59 0 103.5 24t76 61.5t53 84t34 91.5t17.5 85t5 64q0 63 -26.5 104t-65.5 65t-83 32t-79 6l21 86q92 0 157.5 34t106.5 86t59.5 115.5t18.5 124.5q0 96 -54.5 138.5 t-130.5 42.5q-63 0 -105 -25t-68.5 -61.5t-40 -77.5t-17.5 -74h-176q14 51 44 108.5t83 104.5t132 79t193 32q147 0 232.5 -69t85.5 -198q0 -135 -70.5 -224t-208.5 -148l-53 -9l-2 -14l47 -2q92 -16 143.5 -90t51.5 -176t-44 -190.5t-118 -154t-169 -103.5t-198 -38 q-90 0 -156.5 26t-109.5 68t-64.5 93t-21.5 100z" />
<glyph unicode="4" d="M53 330l901 1040h84l-202 -936h174l-23 -104h-172l-55 -258h158l-15 -72h-475l14 72h156l55 258h-600zM233 434h441l139 647z" />
<glyph unicode="5" d="M98 215v102h154q-12 -74 1 -123t43 -78.5t67.5 -41t72.5 -11.5q70 0 137.5 39t122 108t88 161t33.5 200q0 27 -6 70t-28.5 83t-68.5 68.5t-128 28.5q-63 0 -131 -11t-138 -46l-10 14l252 592h561l-55 -108h-453l-163 -394q43 16 102 29.5t127 13.5q150 0 242 -89t92 -240 q0 -113 -45 -221.5t-125 -193.5t-189.5 -137.5t-238.5 -52.5q-53 0 -108.5 16.5t-101.5 47.5t-76 75t-30 99z" />
<glyph unicode="6" d="M127 367q0 88 16.5 198.5t50 224t87 222t127 193.5t169 136.5t214.5 51.5q135 0 212.5 -63.5t63.5 -170.5h-170q8 66 -31 107t-110 41q-84 0 -148.5 -46.5t-111.5 -122t-80 -174t-56 -204.5l-8 -27h13l12 23q55 72 137 105.5t164 33.5q53 0 110.5 -16.5t105.5 -55.5 t79 -101.5t31 -154.5q0 -119 -43 -225t-117 -187t-170 -129.5t-203 -48.5q-63 0 -124.5 20.5t-111 67t-79 121t-29.5 181.5zM297 301q0 -86 25.5 -134t58.5 -70.5t65.5 -28t49.5 -5.5q76 0 134 51.5t98 127t60.5 161.5t20.5 158q0 74 -19.5 122t-49 75.5t-63.5 39t-63 11.5 q-33 0 -74.5 -14.5t-84.5 -56.5t-81 -114.5t-63 -189.5q-6 -33 -10 -65.5t-4 -67.5z" />
<glyph unicode="7" d="M240 1092l59 278h848q-92 -162 -177 -323.5t-167 -325.5h168l-19 -84h-190q-152 -319 -270 -637h-183q66 158 138.5 316.5t158.5 320.5h-166l19 84h190q76 143 153 277.5t156 263.5h-579l-39 -170h-100z" />
<glyph unicode="8" d="M94 293q0 72 22.5 139.5t64.5 124.5t101.5 99t133.5 65l47 8l2 14l-45 13q-72 31 -108 90t-36 127q0 74 29 148.5t87.5 135t146.5 98.5t209 38q88 0 149 -22.5t100 -59.5t56.5 -86t17.5 -103q0 -59 -19.5 -115.5t-55 -105.5t-86 -87t-109.5 -58l-51 -13l-2 -14l43 -8 q88 -29 134 -98.5t46 -161.5q0 -74 -33 -159t-98.5 -156.5t-165 -120t-230.5 -48.5q-74 0 -137 20.5t-110 60.5t-75 99.5t-28 135.5zM289 274q0 -63 19.5 -104t49 -64.5t64 -33t67.5 -9.5q66 0 119.5 37t90 94.5t57 127t20.5 133.5q0 27 -6 67.5t-25.5 78.5t-55.5 64.5 t-93 26.5q-63 0 -118.5 -29.5t-97.5 -85t-66.5 -132t-24.5 -171.5zM440 967q0 -55 16.5 -95.5t42 -65t57 -35.5t60.5 -11q63 0 116.5 31.5t92.5 82t60.5 113t21.5 123.5q0 100 -58 148.5t-134 48.5q-70 0 -122 -33t-86 -83t-50.5 -110.5t-16.5 -113.5z" />
<glyph unicode="9" d="M127 211h170q-8 -66 31 -107t110 -41q84 0 148.5 46.5t111.5 122t80 174t56 204.5l8 27h-13l-12 -23q-55 -72 -137 -105.5t-164 -33.5q-53 0 -110.5 16.5t-105.5 55.5t-79 101.5t-31 154.5q0 119 43 225.5t117 187t170 129t203 48.5q63 0 124.5 -20.5t111 -66.5t79 -121 t29.5 -181q0 -88 -16.5 -199t-50 -224.5t-87 -222t-127 -193.5t-169 -136.5t-214.5 -51.5q-135 0 -212.5 63.5t-63.5 170.5zM385 809q0 -74 19.5 -122t49 -75.5t63.5 -39t63 -11.5q33 0 74.5 14.5t84.5 56.5t81 114.5t63 189.5q6 33 10 65.5t4 67.5q0 86 -25.5 134 t-58.5 70.5t-66.5 28t-48.5 5.5q-76 0 -134 -51.5t-98 -127t-60.5 -162.5t-20.5 -157z" />
<glyph unicode=":" horiz-adv-x="538" d="M127 68q0 18 6 45.5t20.5 53.5t40 44t66.5 18q4 0 17.5 -1t26.5 -9t24.5 -26.5t11.5 -51.5q0 -29 -9 -57.5t-25.5 -52t-41 -39t-57.5 -15.5q-41 0 -60.5 25t-19.5 66zM285 807q0 18 6 46t20.5 53.5t40 44t66.5 18.5q4 0 17.5 -1t26.5 -9.5t24.5 -27t11.5 -50.5 q0 -29 -9.5 -57.5t-26 -52t-41 -39t-56.5 -15.5q-41 0 -60.5 24.5t-19.5 65.5z" />
<glyph unicode=";" horiz-adv-x="538" d="M59 -264l107 506h188l-215 -506h-80zM289 807q0 18 6 46t20.5 53.5t40 44t66.5 18.5q4 0 17.5 -1t26.5 -9.5t24.5 -27t11.5 -50.5q0 -29 -9.5 -57.5t-25.5 -52t-41 -39t-57 -15.5q-41 0 -60.5 24.5t-19.5 65.5z" />
<glyph unicode="&#x3c;" horiz-adv-x="1519" d="M113 647l1261 537l33 -86l-1028 -451l1028 -450l-33 -86z" />
<glyph unicode="=" horiz-adv-x="1519" d="M115 438v121h1347v-121h-1347zM115 811v121h1347v-121h-1347z" />
<glyph unicode="&#x3e;" horiz-adv-x="1519" d="M141 197l1028 450l-1028 451l33 86l1262 -537l-1262 -536z" />
<glyph unicode="?" horiz-adv-x="833" d="M184 68q0 18 6.5 45.5t20.5 53.5t39.5 44t66.5 18q4 0 17.5 -1t27 -9t24.5 -26.5t11 -51.5q0 -29 -9 -57.5t-25.5 -52t-41 -39t-57.5 -15.5q-41 0 -60.5 25t-19.5 66zM190 522q0 61 24 111.5t60.5 93.5t80.5 80t85 72q57 47 100.5 86t73 76.5t45 76.5t15.5 88 q0 66 -32 91.5t-73 25.5q-14 0 -37.5 -4t-50 -20.5t-51 -47t-43.5 -86.5h-160q12 49 41 94.5t72 78t102.5 52t137.5 19.5q82 0 132 -20.5t77.5 -52t38 -69.5t10.5 -73q0 -68 -29 -126t-72 -110.5t-94 -96.5t-96 -83q-29 -25 -70 -59.5t-78 -75.5t-63.5 -85t-26.5 -87 q0 -53 45 -53q16 0 53 18.5t99 98.5l88 -80q-41 -47 -104.5 -82t-124.5 -35q-29 0 -60 8t-56.5 29.5t-42 57.5t-16.5 89z" />
<glyph unicode="@" horiz-adv-x="1923" d="M86 584q0 137 40 271t114.5 249t181 205t242.5 141q90 35 184 47t190 12q154 0 281 -44t225 -115.5t166 -161.5t105 -182q29 -78 40 -159t11 -165q0 -125 -38 -233.5t-103.5 -189.5t-154.5 -127t-194 -46q-23 0 -53.5 4t-63 18.5t-65.5 39t-59 67.5q-72 -55 -133.5 -82 t-131.5 -27q-66 0 -129 22t-113 68t-81 119.5t-31 178.5q0 115 42 218t116 181t174 123t215 45q20 0 49 -3t60.5 -17.5t66.5 -41t66 -71.5l32 96h170l-170 -563q-23 -72 -31 -111t-8 -61q0 -41 11.5 -66.5t27 -40t32.5 -19.5t28 -5q61 0 131.5 37.5t129 106.5t97.5 166 t39 214q0 72 -11 144.5t-38 140.5q-41 104 -109.5 191t-164 149.5t-213 96.5t-254.5 34q-80 0 -160 -14.5t-154 -43.5q-98 -39 -194.5 -111.5t-171 -174t-120.5 -230.5t-46 -282q0 -158 57 -312.5t164.5 -277.5t261.5 -199t344 -76q117 0 209 21.5t161.5 52.5t115 62.5 t67.5 52.5l45 -58q-92 -68 -175 -108.5t-156.5 -61t-139 -26.5t-121.5 -6q-211 0 -379 83t-284.5 216t-179 301t-62.5 338zM715 360q10 -82 53 -131t119 -49q84 0 142 42t89 85l139 492q-16 88 -71.5 142t-126.5 54q-61 0 -118.5 -38.5t-105 -108.5t-79 -165t-41.5 -206 q-6 -59 0 -117z" />
<glyph unicode="A" horiz-adv-x="1390" d="M-74 0l15 72h133l778 1339h78l297 -1339h133l-14 -72h-494l14 72h170l-82 338h-583l-195 -338h170l-14 -72h-406zM420 498h522l-137 628l2 29h-12l-7 -29z" />
<glyph unicode="B" horiz-adv-x="1269" d="M35 0l14 72h156l260 1226h-156l15 72h606q135 0 221 -69.5t86 -188.5q0 -66 -26.5 -127t-75 -111.5t-116 -84t-149.5 -44.5h-20l-2 -12l18 -2q57 -2 111.5 -18.5t96.5 -49t67.5 -80.5t25.5 -112q0 -53 -22.5 -133t-80.5 -156t-160.5 -129t-262.5 -53h-606zM391 86h240 q86 0 149.5 38t106.5 94t64.5 122t21.5 121q0 61 -23.5 103t-61.5 70t-88 40t-106 12h-174zM537 772h196q61 0 117.5 26.5t100.5 71.5t71 104.5t27 125.5q0 33 -10.5 66.5t-35 59t-63.5 42t-96 16.5h-199z" />
<glyph unicode="C" horiz-adv-x="1486" d="M172 530q0 162 61.5 316.5t173 275.5t268 196t347.5 75q104 0 200.5 -27t155.5 -94l11 -27h12v33l18 92h119l-82 -379h-119q10 41 14.5 60.5t4.5 31.5q0 33 -21.5 72t-61.5 73t-98.5 56.5t-130.5 22.5q-164 0 -289.5 -75t-211.5 -190.5t-131 -255t-45 -270.5 q0 -106 33.5 -190t92 -142.5t134 -89.5t161.5 -31q119 0 246 41t256 150l49 -55q-63 -61 -138 -103.5t-154.5 -69t-162.5 -38t-163 -11.5q-123 0 -224.5 36t-174 105.5t-111.5 173t-39 238.5z" />
<glyph unicode="D" horiz-adv-x="1454" d="M35 0l14 72h156l260 1226h-156l15 72h577q162 0 269.5 -53t170 -134t88 -176.5t25.5 -177.5q0 -78 -21.5 -170t-67.5 -184t-116.5 -178t-170 -151.5t-228.5 -105.5t-289 -40h-526zM389 86h189q154 0 279.5 66.5t214.5 172t138.5 238.5t49.5 266q0 63 -15.5 142.5 t-61.5 149t-130 116.5t-219 47h-191z" />
<glyph unicode="E" horiz-adv-x="1257" d="M35 0l14 72h156l262 1226h-156l15 72h989l-53 -244h-111l31 136h-541l-106 -490h448l35 162h110l-84 -393h-110l31 145h-447l-123 -577h572l41 186h110l-63 -295h-1020z" />
<glyph unicode="F" horiz-adv-x="1204" d="M35 0l14 72h156l262 1226h-156l15 72h1009l-55 -260h-113l33 152h-559l-104 -492h456l35 162h115l-86 -406h-115l33 158h-457l-131 -612h156l-15 -72h-493z" />
<glyph unicode="G" horiz-adv-x="1546" d="M172 524q0 209 81 371t206 272.5t277.5 168t295.5 57.5q49 0 105.5 -10.5t111 -29t100.5 -45t74 -61.5l15 -24h12l2 26l25 121h110l-82 -375h-110q10 32 10 62t-9 57q-20 57 -68 100t-118.5 68t-152.5 25q-125 0 -223.5 -40t-175 -106.5t-132 -152.5t-91.5 -177.5 t-52 -181.5t-16 -164q0 -57 17 -129.5t63.5 -137t127 -110t209.5 -45.5q55 0 113.5 12.5t115 36t105.5 55.5t84 69l64 294h-205l18 86h379l-131 -618h-65l-35 119q-125 -84 -249 -112t-228 -28q-186 0 -300 59.5t-175.5 144.5t-82 179.5t-20.5 163.5z" />
<glyph unicode="H" horiz-adv-x="1628" d="M35 0l14 72h156l260 1226h-156l15 72h493l-14 -72h-156l-112 -528h765l113 528h-156l15 72h493l-14 -72h-156l-260 -1226h156l-14 -72h-494l14 72h156l129 612h-766l-129 -612h156l-15 -72h-493z" />
<glyph unicode="I" horiz-adv-x="681" d="M35 0l14 72h156l262 1226h-156l15 72h493l-14 -72h-156l-262 -1226h156l-15 -72h-493z" />
<glyph unicode="J" horiz-adv-x="919" d="M-49 199v18q0 35 6 66l180 20q-9 -47 -9 -84q0 -29 6 -51q13 -49 38 -73.5t54.5 -32t49.5 -7.5q70 0 113 38t69.5 93.5t41 115.5t24.5 106l191 890h-156l14 72h494l-14 -72h-156l-192 -909q-12 -61 -37 -133t-75 -134.5t-132 -103.5t-209 -41q-33 0 -64.5 2.5t-64.5 10.5 q-61 14 -98 48t-54.5 75t-19.5 86z" />
<glyph unicode="K" horiz-adv-x="1460" d="M35 0l14 72h156l262 1226h-156l15 72h493l-14 -72h-156l-141 -667l731 667h-162l15 72h419l-14 -72h-160l-491 -460l350 -766h152l-15 -72h-506l15 72h149l-286 635l-226 -207l-92 -428h156l-15 -72h-493z" />
<glyph unicode="L" horiz-adv-x="1128" d="M35 0l14 72h156l262 1226h-156l15 72h493l-14 -72h-156l-254 -1189h518l39 184h123l-61 -293h-979z" />
<glyph unicode="M" horiz-adv-x="1951" d="M35 0l14 72h156l375 1226h-154l14 72h336l254 -866v-19h12l5 19l600 866h333l-14 -72h-154l-118 -1226h155l-14 -72h-494l15 72h155l86 1073l9 22h-13l-10 -24l-635 -899h-20l-269 899l-8 35h-12l-10 -35l-328 -1071h156l-15 -72h-407z" />
<glyph unicode="N" horiz-adv-x="1622" d="M35 0l14 72h154l260 1226h-154l15 72h309l627 -999l14 -35h12l4 35l199 927h-172l14 72h426l-14 -72h-154l-278 -1321h-25l-739 1164l-4 22h-13v-24l-227 -1067h172l-14 -72h-426z" />
<glyph unicode="O" horiz-adv-x="1607" d="M172 557q0 188 80 343t206 264.5t278.5 169t299.5 59.5q117 0 220.5 -34t182.5 -104.5t124 -180t45 -261.5q0 -162 -72 -312.5t-192.5 -267t-278.5 -186.5t-330 -70q-139 0 -244.5 44.5t-176 121t-106.5 183t-36 231.5zM367 506q0 -88 24.5 -168t73.5 -141.5t121.5 -97.5 t167.5 -36q102 0 191 36t163 97.5t130 142.5t95 170t59.5 181t20.5 176q0 86 -25.5 165t-75.5 140.5t-124 98.5t-170 37q-102 0 -190.5 -36t-160 -96.5t-128 -140.5t-95 -169t-58 -182t-19.5 -177z" />
<glyph unicode="P" horiz-adv-x="1191" d="M35 0l14 72h156l260 1228h-156l15 70h585q20 0 75.5 -6t115 -36t105.5 -93.5t46 -175.5q0 -90 -34.5 -181.5t-105.5 -167t-176.5 -122.5t-244.5 -47q-63 0 -112.5 8t-83.5 18l-107 -495h170l-14 -72h-508zM510 649q35 -12 69.5 -17t77.5 -5q94 0 169 34.5t126.5 91 t78 130t26.5 151.5q0 113 -62.5 181.5t-171.5 68.5h-180z" />
<glyph unicode="Q" horiz-adv-x="1615" d="M172 539q0 174 73.5 328.5t195.5 271t279 185.5t320 69q141 0 249 -44t180.5 -120t109.5 -177.5t37 -217.5q0 -96 -30 -202t-89 -206t-149.5 -190.5t-208.5 -157.5l129 -195l-148 -73l-139 204q-121 -37 -242 -37q-139 0 -245.5 44.5t-178 121t-107.5 178t-36 218.5z M367 506q0 -86 23.5 -166t70.5 -141.5t117.5 -98.5t162.5 -37q47 0 94.5 6.5t94.5 24.5l-99 144l142 88l102 -156q125 96 194.5 205.5t103.5 208t41 175.5t7 107q0 86 -26.5 166t-77.5 140.5t-126 97.5t-169 37q-127 0 -245 -63.5t-209 -172t-146 -254t-55 -311.5z" />
<glyph unicode="R" horiz-adv-x="1306" d="M35 0l14 72h156l262 1226h-156l15 72h571q70 0 133.5 -15.5t111.5 -48t76.5 -87t28.5 -129.5q0 -88 -30.5 -165t-86 -135.5t-132 -95.5t-167.5 -43h-18l-2 -14l35 -8q25 -10 39 -29.5t29.5 -60.5t40 -112t71.5 -183q39 -96 74 -135t100 -39h22.5t22.5 2l-14 -70 q-29 -14 -58.5 -19.5t-72.5 -5.5q-57 0 -92 8.5t-65 43t-60.5 104.5t-81.5 193q-25 61 -40.5 100t-25.5 65.5t-17 44t-20 33.5q-20 29 -27 33t-24 4h-143l-117 -534h156l-15 -72h-493zM522 692h174q68 0 132.5 31t114.5 81t80 117.5t30 141.5q0 104 -65.5 162.5t-170.5 58.5 h-166z" />
<glyph unicode="S" horiz-adv-x="1089" d="M37 4l78 363h104l-10 -68q-2 -14 -2 -27q0 -28 8 -56q12 -42 46 -76t89.5 -55.5t136.5 -21.5q119 0 193 38t114 91.5t54 110.5t14 96q0 55 -27.5 90t-74.5 63t-113.5 53.5t-142.5 62.5q-43 20 -86 44.5t-79 61.5t-58.5 89t-22.5 124q0 82 42 156t112.5 129t162 88 t191.5 33q86 0 153.5 -19.5t114.5 -79.5l15 -30h10v43l12 63h107l-72 -336h-105l7 51v56q0 23 -10.5 51.5t-35 54t-65.5 43t-100 17.5q-84 0 -150.5 -22.5t-114 -59.5t-73 -85t-25.5 -100q0 -55 25.5 -94t68.5 -69.5t102.5 -56t127.5 -54.5q37 -16 80 -35.5t83 -47.5 t71.5 -68t45.5 -97q7 -29 7 -58v-8q-1 -32 -7 -67q-14 -72 -56 -143.5t-112.5 -131t-170 -96.5t-230.5 -37q-33 0 -70 3.5t-74.5 14.5t-75.5 32.5t-75 56.5l-6 27h-12l4 -27l-17 -80h-106z" />
<glyph unicode="T" horiz-adv-x="1198" d="M229 1106l56 264h1089l-57 -264h-113l35 156h-340l-254 -1190h156l-15 -72h-493l14 72h156l254 1190h-340l-35 -156h-113z" />
<glyph unicode="U" horiz-adv-x="1505" d="M266 315q0 49 6.5 97.5t16.5 99.5l168 786h-156l14 72h508l-14 -72h-170l-168 -786q-8 -41 -15 -77t-7 -75q0 -43 12 -95t45 -97t89 -75t146 -30q137 0 226.5 56.5t143.5 138.5t82 174t44 164l147 702h-170l15 72h424l-15 -72h-155l-174 -819q-25 -119 -82.5 -212 t-136 -157.5t-175 -98.5t-198.5 -34q-23 0 -66 1.5t-92 10.5t-101 28.5t-95.5 57.5t-70 96t-26.5 144z" />
<glyph unicode="V" horiz-adv-x="1425" d="M201 1298l14 72h584l-15 -72h-202l166 -1013l2 -37h12l14 37l594 1013h-201l15 72h487l-14 -72h-178l-758 -1298h-129l-221 1298h-170z" />
<glyph unicode="W" horiz-adv-x="2017" d="M203 1298l12 72h508l-14 -72h-179l115 -1024l-2 -22h10l6 22l580 1096h94l107 -1096l-4 -22h12l10 22l543 1024h-174l14 72h422l-14 -72h-142l-700 -1298h-123l-100 1028l2 25h-12l-9 -25l-549 -1028h-118l-150 1298h-145z" />
<glyph unicode="X" horiz-adv-x="1492" d="M6 0l14 72h150l555 620l-303 606h-141l14 72h524l-14 -72h-180l229 -462h12l8 16l416 446h-172l15 72h430l-15 -72h-141l-498 -532l340 -694h133l-14 -72h-526l14 72h180l-250 530l-6 14h-12l-10 -14l-475 -530h172l-15 -72h-434z" />
<glyph unicode="Y" horiz-adv-x="1214" d="M201 1298l16 72h518l-14 -72h-172l182 -624v-23h12l11 23l463 624h-173l17 72h428l-14 -72h-144l-571 -757l-94 -469h149l-14 -72h-492l17 72h157l95 448l-238 778h-139z" />
<glyph unicode="Z" horiz-adv-x="1239" d="M6 0l1077 1264h-649l-35 -164h-116l59 272h1032l-1069 -1263h721l31 149h112l-55 -258h-1108z" />
<glyph unicode="[" horiz-adv-x="720" d="M92 -446l393 1845h332l-20 -94h-156l-350 -1657h155l-20 -94h-334z" />
<glyph unicode="\" horiz-adv-x="1118" d="M115 1427h143l791 -1484h-144z" />
<glyph unicode="]" horiz-adv-x="720" d="M-8 -446l20 94h156l352 1657h-155l20 94h332l-391 -1845h-334z" />
<glyph unicode="^" horiz-adv-x="991" d="M229 1083l338 338l338 -338h-172l-166 166l-166 -166h-172z" />
<glyph unicode="_" horiz-adv-x="1370" d="M0 -344h1370v-143h-1370v143z" />
<glyph unicode="`" horiz-adv-x="444" d="M170 1434h240l165 -293h-79z" />
<glyph unicode="a" horiz-adv-x="1124" d="M111 330q0 154 48 273.5t122.5 200.5t165 123t174.5 42q61 0 105 -17.5t73.5 -45t46 -59.5t24.5 -61l41 164l158 19l-170 -690q-4 -18 -9 -43t-9 -47.5t-7.5 -42t-3.5 -27.5q0 -20 14.5 -34.5t30.5 -14.5t41 12t74 37l31 -56q-63 -45 -106.5 -65.5t-77.5 -20.5 q-45 0 -75 12.5t-48.5 29t-25.5 36t-7 33.5v23.5t2 23.5h-10q-16 -35 -51 -63.5t-76 -50t-85 -33t-79 -11.5q-61 0 -117.5 21.5t-99.5 64.5t-68.5 110t-25.5 157zM285 330q0 -86 21.5 -137.5t52 -77t62.5 -32.5t52 -7q88 0 170 64.5t115 193.5l78 313q2 7 2 18q0 15 -4 38 q-6 40 -24.5 81t-56.5 73t-100 32q-82 0 -149.5 -55.5t-116.5 -138.5t-75.5 -181t-26.5 -184z" />
<glyph unicode="b" horiz-adv-x="1114" d="M94 0l277 1294h-148l15 72h311l-107 -489l-18 -48h12q41 49 88 78t89 42.5t77 16.5t51 3q166 0 246 -96.5t80 -256.5q0 -123 -41 -238.5t-112.5 -204.5t-172 -142.5t-217.5 -53.5q-219 0 -266 166l-104 -143h-60zM329 228q11 -60 39.5 -97t67.5 -52.5t76 -15.5 q29 0 77 10.5t100 52.5t102.5 124t82.5 223q8 35 13.5 70t5.5 69q0 76 -17.5 128.5t-46 84t-66.5 45t-79 13.5q-55 0 -110.5 -28t-108.5 -89q-29 -33 -44 -60.5t-23.5 -52t-12.5 -46t-8 -40.5l-21 -94l-20 -94q-11 -56 -11 -100q0 -28 4 -51z" />
<glyph unicode="c" horiz-adv-x="1001" d="M111 350q0 123 47 234.5t123.5 197.5t177 136.5t207.5 50.5q78 0 128 -21.5t85 -54.5l8 -21h10l-2 27l8 47h96l-57 -272h-96q6 24 6 48q0 14 -2 28q-6 38 -27.5 68t-57.5 48.5t-83 18.5q-80 0 -151.5 -41t-127 -113t-87 -171t-31.5 -218q0 -84 24.5 -137t62.5 -83t83 -41 t84 -11q78 0 147.5 30.5t147.5 83.5l36 -71q-68 -51 -166 -93.5t-221 -42.5q-90 0 -158.5 29t-116.5 79t-72.5 117.5t-24.5 147.5z" />
<glyph unicode="d" horiz-adv-x="1234" d="M111 330q0 127 41 242.5t113.5 203.5t169.5 140.5t212 52.5q211 0 248 -156h10v53q43 217 92 437h-147l14 71h312l-244 -1138q-2 -6 -4 -19.5t-5 -31t-5.5 -34t-2.5 -26.5q0 -27 12.5 -41t43.5 -14q18 0 57 13t62 28l30 -64q-25 -14 -53.5 -27.5t-58 -22.5t-57 -14.5 t-50.5 -5.5q-70 0 -117 42q-33 30 -33 77q0 19 5 41h-11q-27 -49 -65.5 -80.5t-81.5 -49t-86 -24t-76 -6.5q-53 0 -110.5 15.5t-104.5 54.5t-78.5 107.5t-31.5 175.5zM285 334q0 -78 17 -129t46 -83t67 -45.5t79 -13.5q90 0 148 45.5t93 101.5t49.5 106.5t16.5 62.5l20 94 l21 94q4 20 9 39t5 37q0 45 -10 88t-34 77t-59.5 54.5t-84.5 20.5q-31 0 -80 -10.5t-101.5 -51.5t-101.5 -123t-82 -225q-8 -35 -13 -69.5t-5 -69.5z" />
<glyph unicode="e" horiz-adv-x="1046" d="M111 346q0 121 42 233.5t116.5 198.5t177 138.5t223.5 52.5q72 0 133 -22.5t106 -65.5t71 -107.5t26 -148.5v-40t-5 -40l-704 -105q-8 -33 -10 -63.5t-2 -63.5q0 -66 20.5 -113.5t55 -80.5t79.5 -48.5t97 -15.5q98 0 183 47.5t154 110.5l41 -59q-84 -78 -197.5 -127.5 t-228.5 -49.5q-74 0 -142 20.5t-120.5 64.5t-84 115t-31.5 169zM311 518l516 78q4 20 4 31q0 133 -50 204.5t-140 71.5q-55 0 -108.5 -30.5t-96.5 -83t-75.5 -122t-49.5 -149.5z" />
<glyph unicode="f" horiz-adv-x="634" d="M0 0l14 72h148l172 802h-148l15 72h147l33 154q16 74 50 129t78 90t93 52.5t94 17.5q59 0 99.5 -23t74.5 -70l-106 -94q-8 41 -26.5 81t-59.5 40q-31 0 -53.5 -19.5t-37 -48t-22.5 -59.5t-12 -51l-45 -199h201l-15 -72h-200l-172 -802h147l-14 -72h-455z" />
<glyph unicode="g" horiz-adv-x="1155" d="M45 -307l125 102q8 -33 24.5 -68.5t42 -65.5t61.5 -49.5t85 -19.5q41 0 88 14.5t91 51.5t81 100.5t59 161.5l33 150l17 47h-11q-55 -72 -132 -106t-173 -34q-86 0 -147.5 28t-101.5 77t-58 115.5t-18 142.5q0 111 36.5 223.5t105.5 202.5t168 146.5t226 56.5 q27 0 59.5 -3t67.5 -17.5t67.5 -42t61.5 -79.5l68 119h258l-15 -72h-147l-182 -858q-16 -72 -45 -156.5t-87.5 -158.5t-155.5 -124t-249 -50q-18 0 -54 3t-79 19.5t-88 50t-82 93.5zM285 338q0 -76 18.5 -127t47 -82t66.5 -44t77 -13q37 0 82 14t89 50t80.5 96.5t57.5 152.5 l20 94l19 94q2 10 8 61q2 17 2 36q0 34 -7 70q-11 55 -50 99t-127 44q-43 0 -94.5 -16.5t-102.5 -60.5t-96 -123t-72 -204q-8 -35 -13 -70.5t-5 -70.5z" />
<glyph unicode="h" horiz-adv-x="1155" d="M0 0l14 72h148l260 1224h-148l15 72h309l-106 -498l-17 -43h12l21 29q43 39 86 61.5t80 34t65.5 14.5t40.5 3q47 0 92.5 -10.5t80 -35t56 -63.5t21.5 -96q0 -72 -14 -137l-88 -391q-2 -6 -4 -19.5t-5.5 -31t-5.5 -34t-2 -26.5q0 -55 56 -55q8 0 24.5 4t33.5 10t33.5 13 t26.5 14l25 -64q-57 -29 -112.5 -49.5t-108.5 -20.5q-74 0 -107.5 31t-33.5 53q0 27 1 51.5t9 57.5l92 412q6 29 13 53t7 53q0 39 -5 73t-19.5 58.5t-41 38.5t-67.5 14q-88 0 -145 -37.5t-92 -90t-52.5 -107.5t-23.5 -88l-102 -477h147l-14 -72h-455z" />
<glyph unicode="i" horiz-adv-x="638" d="M176 66v38.5t6 40.5l180 729h-147l14 72h314l-178 -710q-16 -59 -18.5 -83t-2.5 -28q0 -55 53 -55q8 0 24.5 4t35 10t35 13t26.5 14l19 -62q-53 -27 -115 -49.5t-109 -22.5q-66 0 -101.5 28t-35.5 61zM432 1237q0 49 36 85t87 36q47 0 64.5 -29t17.5 -55q0 -20 -10.5 -41 t-27.5 -38t-39.5 -27.5t-47.5 -10.5q-29 0 -54.5 19.5t-25.5 60.5z" />
<glyph unicode="j" horiz-adv-x="579" d="M-238 -393l111 74q8 -41 25.5 -71t58.5 -30q20 0 41.5 10.5t42 37t40 71.5t34.5 115l225 1060h-174l14 72h338l-225 -1046q-6 -27 -23.5 -90.5t-56.5 -129t-103.5 -115.5t-162.5 -50q-59 0 -106.5 17t-78.5 75zM401 1237q0 49 36 85t87 36q47 0 64.5 -29t17.5 -55 q0 -20 -10 -41t-27.5 -38t-40 -27.5t-47.5 -10.5q-29 0 -54.5 19.5t-25.5 60.5z" />
<glyph unicode="k" horiz-adv-x="1118" d="M-6 0l14 72h148l260 1231h-148l15 71h311l-191 -891l447 391h-170l16 72h412l-16 -72h-123l-334 -290l285 -512h143l-14 -72h-484l15 72h133l-211 393l-125 -107l-62 -286h129l-14 -72h-436z" />
<glyph unicode="l" horiz-adv-x="577" d="M-14 0l14 72h147l261 1231h-148l14 71h312l-279 -1302h148l-15 -72h-454z" />
<glyph unicode="m" horiz-adv-x="1665" d="M0 0l14 72h148l170 802h-148l15 72h309l-14 -76l-17 -41h10q39 49 80 77t80 42.5t74 17.5t59 3q55 0 93 -14.5t63 -37t39 -49t20 -53.5v-24h11l12 24q39 55 82 86t83 46.5t75.5 18.5t62.5 3q68 0 113 -15.5t72.5 -41t38.5 -58.5t11 -68q0 -33 -1 -63.5t-11 -63.5 l-112 -423q-6 -20 -11.5 -57.5t-5.5 -53.5q0 -55 55 -55q18 0 56.5 13t60.5 28l33 -64q-59 -29 -114.5 -49.5t-112.5 -20.5q-43 0 -72 11.5t-45 29t-23.5 38t-7.5 36.5q0 27 4 51.5t13 53.5l110 407q8 29 14.5 56.5t6.5 56.5q0 16 -2 41.5t-14.5 50.5t-40 43t-81.5 18 q-80 0 -132 -39.5t-84.5 -93t-47 -105.5t-20.5 -77l-103 -483h148l-15 -72h-454l14 72h148l114 534q6 29 12.5 56.5t6.5 56.5q0 72 -33 111.5t-92 39.5q-29 0 -70 -9t-83 -42t-80 -95t-60 -169l-102 -483h131l-15 -72h-438z" />
<glyph unicode="n" horiz-adv-x="1181" d="M0 0l14 72h148l170 802h-150l15 72h309l-31 -117h14l21 31q78 70 150.5 89.5t125.5 19.5q76 0 127.5 -19.5t83 -53.5t46 -78t14.5 -93q0 -27 -4 -51.5t-11 -50.5l-94 -387q-6 -23 -10 -58t-4 -53q0 -23 9 -39t44 -16q18 0 57 13t62 28l31 -64q-47 -29 -113 -49.5 t-115 -20.5q-43 0 -71.5 11.5t-45 29t-22.5 38t-6 38.5t3 37t7 39l109 461q12 49 12 92q0 72 -43 115t-121 43q-37 0 -81 -11.5t-86 -41t-76.5 -83t-53.5 -137.5l-112 -536h147l-14 -72h-455z" />
<glyph unicode="o" horiz-adv-x="1110" d="M111 358q0 92 37.5 200t112.5 199t183.5 151.5t249.5 60.5q98 0 170 -34t117 -88t66.5 -121t21.5 -132q0 -94 -39 -201.5t-113.5 -200t-184 -154t-251.5 -61.5q-96 0 -165.5 34t-115.5 87.5t-67.5 121.5t-21.5 138zM285 311q0 -53 12 -101t38.5 -85t66.5 -59.5t96 -22.5 q94 0 167.5 54.5t125 141.5t78 194.5t26.5 215.5q0 113 -55.5 183.5t-159.5 70.5q-94 0 -168 -55t-124 -141t-76.5 -192t-26.5 -204z" />
<glyph unicode="p" horiz-adv-x="1175" d="M35 -430l301 1304h-148l15 72h309l-16 -69l-23 -60l12 2q51 78 136.5 114t177.5 36q68 0 127 -19.5t103 -62.5t69.5 -111.5t25.5 -167.5q0 -137 -47 -252.5t-123.5 -199.5t-177 -131.5t-205.5 -47.5q-88 0 -154.5 33t-88.5 113h-13v-37l-102 -444h162l-15 -72h-325z M362 242q7 -58 32.5 -98t66.5 -59t90 -19q45 0 99.5 16t107.5 61t99 125t75 205q8 35 13 70t5 69q0 76 -17.5 128.5t-47 83t-67.5 44t-79 13.5q-49 0 -100 -19.5t-95 -59.5t-78 -98.5t-50 -136.5l-21 -94l-22 -94q-13 -56 -13 -102q0 -18 2 -35z" />
<glyph unicode="q" horiz-adv-x="1161" d="M111 324q0 98 32.5 211.5t99 210t167 160t235.5 63.5q41 0 83 -8.5t78 -28t61.5 -53t33.5 -82.5l74 149h254l-15 -72h-147l-264 -1232h147l-14 -72h-469l14 72h162l92 434l15 39h-11q-59 -70 -130.5 -104t-174.5 -34q-20 0 -73.5 6.5t-108.5 39t-98 102.5t-43 199z M285 315q0 -70 16 -117.5t44 -76.5t60.5 -42t67.5 -13q49 0 99.5 17t95.5 56t79.5 97.5t53.5 142.5l20 94l19 94q12 57 12 102q0 25 -4 47q-10 60 -38 97t-69 52.5t-84 15.5q-51 0 -104 -22.5t-101.5 -72t-88 -126t-62.5 -187.5q-16 -82 -16 -158z" />
<glyph unicode="r" horiz-adv-x="761" d="M0 0l14 72h148l170 802h-148l15 72h301l-19 -94l-10 -35h12l17 25q39 59 98 93t121 34q59 0 93 -21.5t56 -68.5l-125 -103q-20 47 -41.5 58.5t-35.5 11.5q-33 0 -69 -16.5t-68.5 -50.5t-59.5 -85t-41 -121l-106 -501h147l-14 -72h-455z" />
<glyph unicode="s" horiz-adv-x="880" d="M41 0l61 289h97q-10 -33 -10 -62q0 -23 6 -43q14 -46 44.5 -75t73.5 -44.5t84 -15.5q94 0 153.5 49t76.5 117q5 18 5 34.5t-5 31.5q-16 47 -66.5 68.5t-109.5 41.5q-39 12 -85.5 27.5t-85 42t-65.5 69.5t-27 111q0 61 28 119.5t76 104.5t113.5 75t143.5 29 q59 0 105 -16.5t96 -63.5l4 -19h12l-2 29l8 47h92l-53 -252h-92q8 30 8 55q0 20 -5 37q-11 39 -39 63.5t-63.5 36t-68.5 11.5q-45 0 -84 -15.5t-68.5 -40t-46 -57t-16.5 -67.5q0 -37 14.5 -61.5t41 -40t63.5 -28t80 -24.5q35 -10 72.5 -23.5t72.5 -34t61.5 -51t38.5 -79.5 q6 -28 6 -56.5t-6 -58.5q-12 -61 -45 -113.5t-82 -90.5t-109.5 -58.5t-127.5 -20.5q-45 0 -79 4.5t-62.5 15.5t-55 31.5t-53.5 51.5l-6 16h-10l4 -22l-17 -74h-96z" />
<glyph unicode="t" horiz-adv-x="688" d="M184 143q0 23 3 42.5t8 41.5l139 647h-144l15 72h143l49 234l187 120l-76 -354h205l-15 -72h-204l-142 -663q-4 -23 -9 -46.5t-5 -45.5q0 -8 1 -20.5t6 -25t17.5 -21.5t34.5 -9q20 0 39 11.5t35 27.5t30.5 37.5t28.5 42.5l68 -72q-39 -41 -75 -64.5t-66.5 -33.5 t-53 -12.5t-34.5 -2.5q-66 0 -103 16.5t-55 41t-22.5 54.5t-4.5 54z" />
<glyph unicode="u" horiz-adv-x="1196" d="M174 874l14 72h310l-136 -631l-8 -46t-4 -46q0 -74 40 -115.5t112 -41.5q45 0 89 15t82 49t67.5 85t45.5 123l115 536h-147l14 72h311l-153 -706q-2 -6 -4 -19.5t-5.5 -31t-5.5 -34t-2 -26.5q0 -59 56 -59q23 0 56.5 14t61.5 31l33 -64q-43 -29 -108.5 -51.5 t-114.5 -22.5q-39 0 -64.5 10.5t-42 24t-24.5 27.5t-10 24q-6 25 0 54h-13l-20 -31q-72 -66 -145.5 -87.5t-145.5 -21.5q-78 0 -125 24t-72.5 56.5t-34 68.5t-8.5 60q0 72 15 138l119 550h-148z" />
<glyph unicode="v" horiz-adv-x="999" d="M98 874l15 72h465l-15 -72h-166l111 -659l2 -27h10l15 27l385 659h-166l14 72h360l-14 -72h-94l-524 -874h-117l-154 874h-127z" />
<glyph unicode="w" horiz-adv-x="1476" d="M100 874l15 72h456l-14 -72h-158l70 -600v-28h12l11 28l362 672h68l77 -672v-28h13l10 28l334 600h-176l14 72h408l-15 -72h-129l-487 -874h-94l-80 608l2 33h-11l-12 -33l-336 -608h-94l-117 874h-129z" />
<glyph unicode="x" horiz-adv-x="1046" d="M-41 0l14 72h144l366 395l-194 407h-148l15 72h452l-14 -72h-121l131 -276l254 276h-139l14 72h373l-14 -72h-121l-328 -354l213 -448h137l-14 -72h-463l14 72h142l-152 315l-291 -315h164l-14 -72h-420z" />
<glyph unicode="y" horiz-adv-x="1038" d="M29 -424l96 166q10 -41 39 -63.5t57 -22.5q20 0 36.5 11t31 26.5t25 32t16.5 28.5l131 246l-240 874h-137l10 72h467l-10 -72h-172l180 -651l4 -39h12l11 39l342 651h-176l10 72h399l-10 -72h-127l-545 -1040q-29 -53 -58.5 -109.5t-65.5 -103.5t-80 -77.5t-101 -30.5 q-23 0 -63.5 8t-81.5 55z" />
<glyph unicode="z" horiz-adv-x="954" d="M2 0l750 874h-420l-45 -212h-115l61 284h760l-747 -874h444l45 211h115l-59 -283h-789z" />
<glyph unicode="{" horiz-adv-x="722" d="M72 514l20 84q78 6 129 55t85 116t52.5 138.5t28.5 120.5q14 66 35.5 144.5t67 149.5t121 124t198.5 67l-6 -69q-63 -10 -105.5 -44t-68 -79t-37.5 -92t-19 -80q-16 -88 -34.5 -172t-57.5 -161t-108.5 -143.5t-186.5 -115.5q100 -59 133 -128t33 -124q0 -59 -13 -127.5 t-44 -163.5q-23 -70 -36 -115.5t-13 -93.5q0 -37 11 -61.5t28.5 -39.5t37 -24.5t37.5 -11.5l-28 -69q-94 10 -153.5 57t-76.5 143q-4 25 -4 48.5t4 48.5q4 29 11.5 56.5t15.5 55.5q20 72 34.5 126t23 97t11.5 79t3 71q0 123 -129 133z" />
<glyph unicode="|" horiz-adv-x="544" d="M258 -487v2220h143v-2220h-143z" />
<glyph unicode="}" horiz-adv-x="722" d="M-20 -401l6 69q63 12 105 46t67.5 76t38 88t18.5 85q8 55 19.5 132t48 159t111.5 162t208 141q-23 12 -51.5 31.5t-54 50.5t-43 72t-17.5 96q0 53 10.5 112.5t30.5 127.5q23 80 44.5 141t21.5 119q0 57 -32 94t-83 43l29 69q61 -6 105 -26.5t72 -49t40 -61.5t12 -63 q0 -39 -3 -87t-24 -122q-35 -125 -53 -209t-18 -162q0 -55 33.5 -93t95.5 -42l-21 -84q-74 -6 -124 -49t-82.5 -104.5t-53 -135t-35.5 -143.5q-14 -66 -35.5 -143.5t-66.5 -148.5t-121 -124t-198 -67z" />
<glyph unicode="~" horiz-adv-x="1181" d="M229 557q14 43 40 83t63 71.5t82 51t98 19.5q43 0 74.5 -7t64.5 -18.5t72 -26.5t94 -32q16 -4 32.5 -8t33.5 -4q55 0 75.5 25.5t51.5 70.5h86q-41 -98 -102.5 -163.5t-153.5 -65.5q-41 0 -92 10q-43 10 -81 24.5t-74 29t-71 23.5t-69 9q-49 0 -81 -25.5t-57 -66.5h-86z " />
<glyph unicode="&#xa4;" horiz-adv-x="1318" d="M59 170l146 141q-68 84 -100.5 175.5t-32.5 201.5q0 211 133 371l-146 141l86 86l144 -143q82 66 172 98.5t198 32.5q211 0 375 -129l142 141l84 -86l-140 -141q66 -82 97.5 -172t31.5 -201t-31.5 -201t-97.5 -174l140 -141l-84 -84l-142 141q-53 -43 -106.5 -68.5 t-101.5 -40t-91 -19.5t-76 -5q-88 0 -182 30t-186 103l-146 -143zM193 688q0 -117 41 -199t94 -135q66 -66 150.5 -102.5t180.5 -36.5q76 0 159 29.5t152.5 89t113.5 147.5t44 205t-44 205t-113.5 147.5t-152.5 89t-159 29.5q-78 0 -159.5 -29.5t-150 -89t-112.5 -146.5 t-44 -204z" />
<glyph unicode="&#xa6;" horiz-adv-x="487" d="M172 307h143v-794h-143v794zM172 938v795h143v-795h-143z" />
<glyph unicode="&#xa7;" horiz-adv-x="1079" d="M127 -102.5q0 12.5 4 26.5h129q-4 -10 -4 -20v-21q0 -35 13.5 -55.5t31.5 -30.5t37.5 -12t34.5 -2q53 0 88 14.5t55.5 36t28.5 47t8 45.5q0 31 -14.5 62.5t-36 60.5t-46 55.5t-44.5 47.5q-53 55 -94.5 102t-68 89t-39.5 81t-13 82q0 72 28.5 131t78.5 110.5t116.5 93.5 t142.5 81q-63 74 -82.5 121t-19.5 81q0 45 20.5 93.5t62.5 87t105.5 63.5t147.5 25q63 0 110 -15.5t76 -41t43 -58.5t14 -68q0 -25 -6 -45h-139q6 20 6 41q0 53 -37 77t-84 24q-88 0 -126 -42t-38 -87q0 -49 39 -100.5t111 -127.5q35 -37 75 -79t74.5 -90t57 -102t22.5 -114 q0 -63 -27.5 -118.5t-76.5 -103.5t-115.5 -89t-146.5 -78q41 -45 60.5 -95t19.5 -97q0 -61 -29 -113.5t-77 -90.5t-112.5 -60.5t-136.5 -22.5q-43 0 -84 10t-72.5 31.5t-51 54.5t-19.5 78v26.5zM352 559q0 -53 24.5 -92t55.5 -74l158 -174q76 41 124 82t75.5 80t39 76 t11.5 67q0 53 -21.5 92t-46.5 68l-170 197q-135 -80 -192.5 -166t-57.5 -156z" />
<glyph unicode="&#xa9;" horiz-adv-x="1671" d="M143 686q0 145 55.5 274.5t151.5 225.5t225.5 151.5t274.5 55.5t274 -55.5t225.5 -151.5t151.5 -225.5t55 -274.5t-55 -274t-151.5 -225.5t-225.5 -151.5t-274 -55t-274.5 55t-225.5 151.5t-151.5 225.5t-55.5 274zM270 686q0 -119 46 -224.5t125 -184t184.5 -125 t224.5 -46.5t224.5 46.5t184 125t125 184t46.5 224.5t-46.5 224.5t-125 184.5t-184 125t-224.5 46t-224.5 -46t-184.5 -125t-125 -184.5t-46 -224.5zM492 674q0 94 31.5 165.5t80.5 119t111.5 71t124.5 23.5q70 0 112.5 -20.5t71.5 -47.5l10 -24l8 4l-6 24v39h70v-203h-70 q-4 72 -60 118t-142 34q-25 -4 -59 -17.5t-63.5 -46t-51 -90t-21.5 -149.5q0 -129 58.5 -205t162.5 -88q53 -6 114.5 9.5t127.5 66.5l41 -54q-55 -49 -132 -76.5t-149 -27.5t-138.5 23.5t-117.5 70.5t-82.5 117t-31.5 164z" />
<glyph unicode="&#xab;" horiz-adv-x="1081" d="M168 508l299 387h143l-299 -387l135 -387h-143zM514 508l297 387h143l-299 -387l136 -387h-144z" />
<glyph unicode="&#xac;" horiz-adv-x="1519" d="M115 453v120h1347v-325h-123v205h-1224z" />
<glyph unicode="&#xad;" horiz-adv-x="720" d="M168 453l31 145h463l-31 -145h-463z" />
<glyph unicode="&#xae;" horiz-adv-x="1675" d="M131 684q0 145 55.5 274t151.5 225.5t225 152t275 55.5q145 0 274 -55.5t225.5 -152t151.5 -225.5t55 -274t-55 -274t-151.5 -225.5t-225.5 -152t-274 -55.5t-274.5 55.5t-225.5 152t-151.5 225.5t-55.5 274zM258 684q0 -119 46 -224.5t125 -184t184.5 -125t224.5 -46.5 t224 46.5t184 125t125 184t46 224.5t-46 224.5t-125 184t-184.5 125t-223.5 46.5q-119 0 -224.5 -46.5t-184.5 -125t-125 -184t-46 -224.5zM494 295v65h86v621h-86v66h333q82 0 132.5 -25t77 -58.5t34.5 -67.5t8 -52q0 -27 -9 -57.5t-29.5 -59.5t-52.5 -51.5t-77 -30.5v-6h9 q10 0 36.5 -49t102.5 -162q6 -10 18.5 -24.5t28.5 -25.5t38.5 -16.5t51.5 5.5v-64q-16 -10 -33.5 -14t-48.5 -4q-72 0 -105.5 33.5t-66.5 82.5q-10 12 -31.5 48t-46 73t-46 65.5t-30.5 28.5h-83v-256h88v-65h-299zM705 690h90q25 0 51 8.5t49 24.5t38 44t15 69q0 57 -45 101 t-110 44h-88v-291z" />
<glyph unicode="&#xb0;" horiz-adv-x="716" d="M229 1331q0 49 19.5 87t49.5 62.5t65.5 38t66.5 13.5t66.5 -13.5t65.5 -38t49.5 -62.5t19.5 -87q0 -84 -58.5 -142.5t-142.5 -58.5t-142.5 58.5t-58.5 142.5zM313 1331q0 -61 40 -89t77 -28q41 0 79 30t38 87t-38 87t-79 30t-79 -30t-38 -87z" />
<glyph unicode="&#xb1;" horiz-adv-x="2156" d="M403 12v119h1350v-119h-1350zM403 768v121h615v442h121v-442h614v-121h-614v-440h-121v440h-615z" />
<glyph unicode="&#xb6;" horiz-adv-x="1052" d="M57 1118q0 47 15.5 93t50.5 83t89 59.5t132 22.5h166v-1949h-137v1433h-29q-78 0 -132 22.5t-89 59.5t-50.5 83t-15.5 93zM766 -573v1949h137v-1949h-137z" />
<glyph unicode="&#xb7;" horiz-adv-x="512" d="M150 487q0 27 8 56.5t25.5 53.5t42 39t57.5 15q41 0 60 -24.5t19 -65.5q0 -18 -6 -46t-20 -53.5t-41 -44t-66 -18.5q-4 0 -17 1t-27.5 9.5t-24.5 26.5t-10 51z" />
<glyph unicode="&#xbb;" horiz-adv-x="1081" d="M168 121l299 387l-135 387h143l135 -387l-299 -387h-143zM510 121l301 387l-135 387h143l135 -387l-301 -387h-143z" />
<glyph unicode="&#x2000;" horiz-adv-x="866" />
<glyph unicode="&#x2001;" horiz-adv-x="1733" />
<glyph unicode="&#x2002;" horiz-adv-x="866" />
<glyph unicode="&#x2003;" horiz-adv-x="1733" />
<glyph unicode="&#x2004;" horiz-adv-x="577" />
<glyph unicode="&#x2005;" horiz-adv-x="433" />
<glyph unicode="&#x2006;" horiz-adv-x="288" />
<glyph unicode="&#x2007;" horiz-adv-x="288" />
<glyph unicode="&#x2008;" horiz-adv-x="216" />
<glyph unicode="&#x2009;" horiz-adv-x="346" />
<glyph unicode="&#x200a;" horiz-adv-x="96" />
<glyph unicode="&#x2010;" horiz-adv-x="720" d="M168 453l31 145h463l-31 -145h-463z" />
<glyph unicode="&#x2011;" horiz-adv-x="720" d="M168 453l31 145h463l-31 -145h-463z" />
<glyph unicode="&#x2012;" horiz-adv-x="720" d="M168 453l31 145h463l-31 -145h-463z" />
<glyph unicode="&#x2013;" horiz-adv-x="1519" d="M115 453v120h1347v-120h-1347z" />
<glyph unicode="&#x2014;" horiz-adv-x="2156" d="M182 453l23 104h1872l-21 -104h-1874z" />
<glyph unicode="&#x2018;" horiz-adv-x="538" d="M184 901l215 504h80l-106 -504h-189z" />
<glyph unicode="&#x2019;" horiz-adv-x="538" d="M184 901l107 504h188l-215 -504h-80z" />
<glyph unicode="&#x201a;" horiz-adv-x="538" d="M59 -264l107 506h188l-215 -506h-80z" />
<glyph unicode="&#x201c;" horiz-adv-x="1064" d="M315 866l215 506h80l-106 -506h-189zM684 866l215 506h80l-107 -506h-188z" />
<glyph unicode="&#x201d;" horiz-adv-x="1064" d="M315 866l107 506h188l-215 -506h-80zM684 866l107 506h188l-215 -506h-80z" />
<glyph unicode="&#x201e;" d="M203 -264l106 506h189l-215 -506h-80zM571 -264l107 506h188l-215 -506h-80z" />
<glyph unicode="&#x2022;" horiz-adv-x="1519" d="M530 643q0 47 18.5 89t49.5 73t73 49t89 18t89 -18t72.5 -49t49 -73t18.5 -89t-18.5 -89t-49 -72.5t-72.5 -49t-89 -18.5t-89 18.5t-73 49t-49.5 72.5t-18.5 89z" />
<glyph unicode="&#x2026;" horiz-adv-x="1429" d="M127 66q0 27 8 56.5t25.5 53t42 38.5t57.5 15q41 0 60.5 -24.5t19.5 -65.5q0 -18 -6 -45.5t-20.5 -53.5t-41 -44.5t-65.5 -18.5q-4 0 -17.5 1.5t-28 9.5t-24.5 26.5t-10 51.5zM629 66q0 27 8 56.5t25.5 53t42 38.5t57.5 15q41 0 60.5 -24.5t19.5 -65.5q0 -18 -6.5 -45.5 t-20.5 -53.5t-40.5 -44.5t-65.5 -18.5q-4 0 -17.5 1.5t-28 9.5t-24.5 26.5t-10 51.5zM1128 66q0 27 8.5 56.5t26 53t42 38.5t57.5 15q41 0 60 -24.5t19 -65.5q0 -18 -6 -45.5t-20.5 -53.5t-41 -44.5t-65.5 -18.5q-4 0 -17 1.5t-27.5 9.5t-25 26.5t-10.5 51.5z" />
<glyph unicode="&#x202f;" horiz-adv-x="346" />
<glyph unicode="&#x2039;" horiz-adv-x="737" d="M168 508l299 387h143l-299 -387l135 -387h-143z" />
<glyph unicode="&#x203a;" horiz-adv-x="739" d="M168 121l301 387l-135 387h143l135 -387l-301 -387h-143z" />
<glyph unicode="&#x205f;" horiz-adv-x="433" />
<glyph unicode="&#x2122;" horiz-adv-x="2191" d="M229 1145v225h725v-225h-90v168h-209v-633h123v-55h-372v55h122v633h-209v-168h-90zM1098 625v55h123v633h-123v57h278l223 -469l7 -29h10l6 27l207 471h276v-57h-123v-633h123v-55h-372v55h122v596l5 35l-9 2l-12 -37l-254 -567h-31l-264 567l-14 37l-8 -2l4 -35v-596 h123v-55h-297z" />
<glyph unicode="&#xe000;" horiz-adv-x="942" d="M0 0v942h942v-942h-942z" />
</font>
</defs>
</svg>
