<?xml version="1.0" standalone="no"?>
<!DOCTYPE svg PUBLIC "-//W3C//DTD SVG 1.1//EN" "http://www.w3.org/Graphics/SVG/1.1/DTD/svg11.dtd" >
<svg xmlns="http://www.w3.org/2000/svg">
<metadata></metadata>
<defs>
<font id="balticacbold" horiz-adv-x="1079" >
<font-face units-per-em="2048" ascent="1638" descent="-410" />
<missing-glyph horiz-adv-x="477" />
<glyph horiz-adv-x="2048" />
<glyph horiz-adv-x="2048" />
<glyph unicode="&#xd;" horiz-adv-x="477" />
<glyph unicode=" "  horiz-adv-x="477" />
<glyph unicode="&#x09;" horiz-adv-x="477" />
<glyph unicode="&#xa0;" horiz-adv-x="477" />
<glyph unicode="!" horiz-adv-x="532" d="M98 1370h336l-84 -975h-168zM106 143q0 72 46.5 119t113.5 47q68 0 114 -47t46 -119t-46 -119t-114 -47t-114 47t-46 119z" />
<glyph unicode="&#x22;" horiz-adv-x="880" d="M102 1462h287l-82 -452h-123zM492 1462h286l-82 -452h-123z" />
<glyph unicode="#" horiz-adv-x="2158" d="M262 244l37 184h365l75 389h-364l37 184h362l72 363h184l-72 -363h390l71 363h185l-72 -363h364l-34 -184h-365l-72 -389h365l-39 -184h-365l-71 -365h-185l72 365h-391l-72 -365h-184l72 365h-365zM848 428h393l72 389h-389z" />
<glyph unicode="$" horiz-adv-x="1144" d="M74 0v360h116q6 -59 32 -111t67 -92t94 -65.5t113 -30.5v506l-117 49q-92 39 -148.5 91.5t-87 106.5t-40 106.5t-9.5 91.5q0 74 31 139.5t85 116.5t127 83.5t159 41.5v168h100v-168q78 -4 138.5 -31t117.5 -74l45 82h109v-348h-127q-4 55 -28 105.5t-61.5 89t-88 62.5 t-105.5 28v-437l201 -82q39 -16 87 -42.5t89 -71.5t69.5 -108.5t28.5 -153.5q0 -92 -38 -170t-102.5 -135.5t-150.5 -92t-184 -39.5v-221h-100v221q-53 2 -126 26t-163 97l-35 -98h-98zM301 1112q0 -49 16.5 -81t42 -53.5t58.5 -34.5t67 -28l11 -4v396q-92 -23 -143.5 -68 t-51.5 -127zM596 61q104 16 166.5 82t62.5 148q0 53 -19.5 90t-50 62.5t-66.5 42t-68 28.5l-25 10v-463z" />
<glyph unicode="%" horiz-adv-x="1636" d="M86 985q0 66 22.5 129.5t65.5 114.5t104.5 81.5t141.5 30.5t141.5 -30.5t104.5 -81.5t65.5 -114.5t22.5 -129.5t-22.5 -129t-65.5 -114.5t-104.5 -82t-141.5 -30.5t-141.5 30.5t-104.5 82t-65.5 114.5t-22.5 129zM295 985q0 -80 11 -131t29.5 -80t40 -39t44.5 -10 q20 0 42.5 10t41 39t30 80t11.5 131t-11.5 131t-30 80t-41 39t-42.5 10q-23 0 -44.5 -10t-40 -39t-29.5 -80t-11 -131zM334 -211l864 1610l133 -41l-864 -1610zM883 137q0 66 22.5 129.5t65.5 114.5t104.5 82t141.5 31t141 -31t104 -82t65.5 -114.5t22.5 -129.5t-22.5 -129 t-65.5 -114.5t-104.5 -82t-140.5 -30.5q-80 0 -141.5 30.5t-104.5 82t-65.5 114.5t-22.5 129zM1092 137q0 -80 11 -131t29.5 -79.5t40 -39t44.5 -10.5q20 0 42.5 10.5t41 39t29.5 79.5t11 131t-11 131t-29.5 80t-41 39t-42.5 10q-23 0 -44.5 -10t-40 -39t-29.5 -80t-11 -131 z" />
<glyph unicode="&#x26;" horiz-adv-x="1411" d="M86 356q0 121 93 232.5t247 183.5q-47 63 -75.5 111.5t-46 86.5t-24 69.5t-6.5 62.5q0 70 28 124t74 91t104.5 56.5t119.5 19.5q80 0 139.5 -25t97 -63.5t57 -89t19.5 -101.5q0 -92 -61 -164.5t-164 -132.5l299 -442q14 37 22.5 71.5t14.5 75.5t9 91.5t9 121.5h263 q-10 -137 -62.5 -264t-157.5 -242l80 -114h172v-115h-389l-47 70q-35 -27 -76 -44.5t-84 -28.5t-84 -16.5t-77 -5.5q-115 0 -207 33t-155.5 86t-97.5 122t-34 140zM356 416q0 -80 23.5 -143.5t62.5 -107.5t86 -66.5t97 -22.5q72 0 119 24.5t92 65.5l-349 514 q-80 -59 -105.5 -123.5t-25.5 -140.5zM526 1135q0 -37 7.5 -66t19.5 -55.5t31.5 -54t44.5 -62.5q45 25 77.5 75t32.5 142q0 27 -5 57.5t-16 57t-31.5 45t-51.5 18.5q-29 0 -49.5 -15t-33.5 -37.5t-19.5 -51.5t-6.5 -53z" />
<glyph unicode="'" horiz-adv-x="491" d="M102 1462h287l-82 -452h-123z" />
<glyph unicode="(" horiz-adv-x="720" d="M188 532v195q0 59 5.5 144t27 179.5t64.5 189.5t116 173q53 57 99.5 80t89.5 29v-90q-41 -14 -65.5 -55.5t-38 -92.5t-17.5 -103.5t-4 -90.5v-934q0 -109 14.5 -173.5t35 -101.5t42 -51t33.5 -18v-91q-43 6 -89 29t-100 80q-74 78 -116.5 173t-64 190.5t-27 183.5 t-5.5 155z" />
<glyph unicode=")" horiz-adv-x="720" d="M131 -188q12 4 33.5 18t42 51t35 101.5t14.5 173.5v934q0 39 -4 91t-17.5 103t-38 92t-65.5 56v90q43 -6 89 -29t99 -80q74 -78 116 -173t63.5 -189.5t27.5 -179.5t6 -144v-195q0 -68 -6 -155.5t-27.5 -183t-63.5 -190.5t-116 -173q-53 -57 -99 -79.5t-89 -29.5v91z" />
<glyph unicode="*" horiz-adv-x="690" d="M61 1180l203 18l78 184l78 -184l203 -18l-152 -136l45 -194l-174 100l-174 -100l45 194z" />
<glyph unicode="+" horiz-adv-x="1077" d="M-23 676v172h476v475h172v-475h475v-172h-475v-475h-172v475h-476z" />
<glyph unicode="," horiz-adv-x="538" d="M117 -246v555h305l-162 -555h-143z" />
<glyph unicode="-" horiz-adv-x="718" d="M98 406v184h523v-184h-523z" />
<glyph unicode="." horiz-adv-x="544" d="M109 143q0 68 48 116t115 48q68 0 116 -48t48 -116t-48 -115.5t-116 -47.5t-115.5 47.5t-47.5 115.5z" />
<glyph unicode="/" horiz-adv-x="1105" d="M72 -57l790 1484h172l-790 -1484h-172z" />
<glyph unicode="0" d="M104 684q0 193 35 327t95.5 219t139.5 124t167 39t166.5 -39t139 -124t95.5 -219t35 -327t-35 -327t-95.5 -219t-139 -124t-166.5 -39t-167 39t-139.5 124t-95.5 219t-35 327zM383 684q0 -78 1 -183.5t14.5 -199.5t46 -159.5t96.5 -65.5q63 0 95 65.5t46 159.5t15 199.5 t1 183.5t-1 183.5t-15 199.5t-46 159.5t-95 65.5t-96 -65.5t-46.5 -159.5t-14.5 -199.5t-1 -183.5z" />
<glyph unicode="1" d="M229 1094l303 276h160v-1255h160v-115h-612v115h159v979l-98 -84z" />
<glyph unicode="2" d="M98 0v37l303 387q57 72 107.5 147.5t89.5 155.5t61.5 164t22.5 174q0 119 -49 173t-111 54q-29 0 -59.5 -10t-56 -37.5t-42 -78t-18.5 -130.5h-248q2 53 22.5 115.5t70 116t133.5 89.5t213 36q111 0 193.5 -32t137 -83t81 -116.5t26.5 -133.5q0 -96 -42 -186t-108.5 -175 t-148.5 -163t-162 -148l-168 -145h516v145h119v-356h-883z" />
<glyph unicode="3" d="M76 399h241q2 -96 21.5 -158.5t48.5 -99.5t65.5 -51t73.5 -14q61 0 97 31.5t54.5 78.5t24 102.5t5.5 102.5q0 106 -24 168t-59.5 92.5t-76.5 39.5t-74 9l-67 2v66l69 2q39 2 76 11.5t63.5 39t43 86t16.5 152.5q0 31 -4 71.5t-20.5 76.5t-47.5 60.5t-82 24.5t-81.5 -22.5 t-49 -61.5t-26 -91t-9.5 -111h-223q0 123 49 208.5t162 137.5q94 41 193 41q113 0 191.5 -32t128.5 -83t72.5 -112.5t22.5 -121.5q0 -98 -61.5 -172.5t-153.5 -103.5q127 -33 198 -129t71 -236q0 -109 -42 -189.5t-110 -133.5t-152 -79t-168 -26q-104 0 -189 33t-145.5 90.5 t-92 134t-29.5 166.5z" />
<glyph unicode="4" d="M53 348l563 1022h252v-876h158v-146h-158v-233h160v-115h-641v115h188v233h-522zM229 494h346v606z" />
<glyph unicode="5" d="M72 393h245q2 -109 22.5 -171t51.5 -95t64.5 -42t62.5 -9q33 0 65.5 17.5t57.5 62.5t40 122.5t15 198.5q0 35 -9 85t-36.5 95t-78 77t-132.5 32q-66 0 -131 -26.5t-112 -53.5v10l151 674h598l-53 -213h-447q-29 0 -41 -5t-17 -13.5t-6 -19.5t-3 -25l-62 -258 q51 29 109.5 47t128.5 18q57 0 112.5 -9t106.5 -34q43 -20 85 -55t75 -85t53.5 -114.5t20.5 -146.5q0 -115 -41 -205t-107.5 -151.5t-152.5 -93.5t-177 -32q-100 0 -183 30t-143.5 85t-95 132t-36.5 171z" />
<glyph unicode="6" d="M76 643q0 150 27.5 285t87 238.5t154.5 165t230 61.5q63 0 125 -19.5t112 -57.5t82 -94.5t34 -129.5h-228q-4 37 -13 73.5t-26.5 64t-46 45t-71.5 17.5q-59 0 -95 -40t-55.5 -104.5t-26 -147.5t-6.5 -169q55 66 117 95.5t154 29.5q82 0 151.5 -35.5t118.5 -99t77 -150.5 t28 -190q0 -113 -34 -206t-94.5 -159.5t-142.5 -103.5t-178 -37q-86 0 -172 34t-154.5 113t-111.5 206t-43 315zM369 453q0 -72 6 -139.5t25.5 -120t54 -85t92.5 -32.5q57 0 93 35.5t54.5 90t24.5 120t6 124.5q0 74 -5 145t-23.5 128t-52.5 92t-91 35q-25 0 -57.5 -15.5 t-60 -58.5t-47 -119.5t-19.5 -199.5z" />
<glyph unicode="7" d="M96 995v375h889l-215 -641h127l-39 -117h-129l-207 -612h-315l278 612h-196l55 117h193l182 404h-512v-138h-111z" />
<glyph unicode="8" d="M74 397q0 66 19.5 119t53 94t78.5 71t94 48q-41 18 -77.5 45t-65.5 65t-46 86t-17 107q0 68 25.5 133.5t77.5 115.5t133 81t192 31t191.5 -31t133 -81t78 -115.5t25.5 -133.5q0 -59 -17.5 -107t-46 -86t-65.5 -64.5t-78 -45.5q49 -18 94 -48t79 -71t53.5 -94t19.5 -119 q0 -80 -30 -156.5t-88.5 -135t-145.5 -94.5t-203 -36q-117 0 -205 36t-146.5 94.5t-87 135t-28.5 156.5zM367 348q0 -27 5 -73t22.5 -90t52 -76.5t94.5 -32.5q59 0 94 32.5t52.5 76.5t22.5 90.5t5 72.5q0 35 -2 94.5t-17.5 115.5t-51 97t-103.5 41t-104 -41t-51 -97 t-17 -115.5t-2 -94.5zM375 1051q0 -51 6 -100.5t23.5 -87.5t50 -61.5t86.5 -23.5q53 0 85.5 23.5t50 61.5t24 87t6.5 101q0 23 -3.5 62.5t-18.5 79.5t-49 69.5t-95 29.5t-95 -29.5t-49.5 -69.5t-18.5 -80t-3 -62z" />
<glyph unicode="9" d="M76 899q0 127 41 220t105.5 153.5t144 90.5t157.5 30q86 0 172 -34t155 -112t112 -205t43 -313q0 -129 -24 -263t-79 -243.5t-149.5 -178.5t-235.5 -69q-68 0 -132 19.5t-115.5 57.5t-83 94.5t-33.5 132.5h227q6 -41 15.5 -78t25.5 -64.5t43 -44t65 -16.5q63 0 102.5 42 t59 109.5t24.5 149.5t5 162q-51 -59 -105.5 -92t-132.5 -33q-80 0 -152.5 30.5t-130 91t-91 151.5t-33.5 212zM356 924q0 -74 5.5 -144.5t23.5 -128t52 -92.5t91 -35q25 0 57.5 15.5t60.5 58.5t47.5 120t19.5 202q0 70 -6.5 136t-25.5 118.5t-54 85t-92 32.5 q-59 0 -94 -35.5t-53.5 -90t-25 -120t-6.5 -122.5z" />
<glyph unicode=":" horiz-adv-x="544" d="M109 141q0 68 48 116t115 48q68 0 116 -48t48 -116t-48 -116t-116 -48t-115.5 48t-47.5 116zM109 817q0 68 48 116t115 48q68 0 116 -48t48 -116t-48 -116t-116 -48t-115.5 48t-47.5 116z" />
<glyph unicode=";" horiz-adv-x="544" d="M109 817q0 68 48 116t115 48q68 0 116 -48t48 -116t-48 -116t-116 -48t-115.5 48t-47.5 116zM119 -246v555h305l-162 -555h-143z" />
<glyph unicode="&#x3c;" horiz-adv-x="1433" d="M131 676v135l1043 602l77 -135l-925 -535l925 -534l-77 -135z" />
<glyph unicode="=" d="M-23 467v172h1125v-172h-1125zM-23 887v172h1125v-172h-1125z" />
<glyph unicode="&#x3e;" horiz-adv-x="1433" d="M182 209l926 534l-926 535l78 135l1043 -602v-135l-1043 -602z" />
<glyph unicode="?" horiz-adv-x="720" d="M49 1102v53q0 43 22.5 85t62.5 76t93.5 55.5t114.5 21.5q70 0 130 -20.5t104.5 -56.5t70 -85t25.5 -109q0 -43 -11.5 -80.5t-29 -69.5t-37 -58.5t-37.5 -47.5l-203 -239q-16 -16 -32.5 -39t-16.5 -51q0 -18 11.5 -44t45.5 -26q45 0 69 42t40 93l117 -86 q-20 -70 -86 -106.5t-129 -36.5q-49 0 -94.5 18.5t-80 50t-55 74.5t-20.5 90q0 41 8 73t22.5 57.5t33 49t36.5 48.5l172 221q41 53 47.5 96t6.5 76q0 31 -35 48t-76 17t-63.5 -17.5t-34 -42t-14.5 -52t-3 -47.5v-31h-174zM193 141q0 68 48 116t115 48q68 0 116 -48t48 -116 t-48 -116t-116 -48t-115.5 48t-47.5 116z" />
<glyph unicode="@" horiz-adv-x="2154" d="M131 631q0 209 74 383t202 299t301 194.5t369 69.5q186 0 328.5 -45t248 -120t176.5 -173t114 -202.5t61 -210t18 -195.5q0 -150 -57 -257.5t-145 -177t-193.5 -103.5t-204.5 -34q-78 0 -122 18.5t-65.5 44t-26.5 50.5t-5 37v10h-2q-14 -31 -50 -57.5t-79 -45t-85 -28.5 t-70 -10q-51 0 -108.5 16.5t-107 57.5t-82 111.5t-32.5 180.5q0 158 49 280t125 205t169 126t183 43q78 0 139.5 -30t110.5 -114l31 123l188 27l-176 -713q-16 -68 -21.5 -105.5t-5.5 -49.5q0 -33 22.5 -40.5t70.5 -7.5q82 0 152.5 34t122.5 93.5t83 140.5t31 175 q0 178 -56.5 325.5t-160 254t-248 165t-320.5 58.5q-182 0 -327.5 -68t-247 -179.5t-155.5 -256t-54 -299.5q0 -209 70.5 -360.5t182 -250t252 -145.5t279.5 -47q143 0 241.5 39t158.5 78l73 -133q-59 -37 -117.5 -60.5t-121 -39t-132 -21.5t-149.5 -6q-201 0 -366.5 69.5 t-284.5 195.5t-183.5 299t-64.5 382zM797 444q0 -74 16 -121t41 -73.5t55.5 -35.5t59.5 -9q39 0 80 15.5t77.5 47t66.5 77.5t46 108l78 313q4 16 -1 53t-25.5 75t-58.5 66.5t-97 28.5q-78 0 -140.5 -55t-106.5 -137t-67.5 -177.5t-23.5 -175.5z" />
<glyph unicode="A" horiz-adv-x="1431" d="M-57 0v115h153l510 1255h168l561 -1255h154v-115h-619v115h160l-115 264h-600l-104 -264h147v-115h-415zM358 489h512l-254 580l-6 45h-12l-6 -45z" />
<glyph unicode="B" horiz-adv-x="1316" d="M86 0v115h160v1140h-160v115h637q147 0 236.5 -35t137.5 -86t63.5 -108.5t15.5 -102.5q0 -68 -25 -119t-66 -86.5t-92 -56t-106 -26.5v-11q43 -2 104.5 -16t117.5 -53t95 -105.5t39 -173.5q0 -88 -37 -159.5t-101.5 -123t-153.5 -80t-193 -28.5h-672zM539 115h118 q61 0 114.5 20.5t93.5 57t62.5 87t22.5 107.5q0 61 -20.5 112.5t-57 90.5t-86 60.5t-104.5 21.5h-143v-557zM539 786h120q31 0 72 14.5t78 43t61.5 73t24.5 105.5q0 39 -13.5 81t-44 75.5t-79.5 55t-123 21.5h-96v-469z" />
<glyph unicode="C" horiz-adv-x="1404" d="M35 694q0 117 30.5 218.5t85 183.5t130 143t165.5 98q74 31 153 43.5t159 12.5q115 0 198.5 -30t173.5 -93l64 106h102v-387h-116q-4 70 -38 124t-84 91t-111.5 56.5t-121.5 19.5q-80 0 -160.5 -31.5t-145 -103.5t-105.5 -185.5t-41 -275.5q0 -92 18.5 -175t50 -151.5 t75.5 -122t97 -83.5q53 -33 115 -45.5t125 -12.5q121 0 212 51.5t169 153.5l100 -80q-123 -123 -254 -183.5t-295 -60.5q-158 0 -295 53.5t-238 149.5t-159.5 227.5t-58.5 288.5z" />
<glyph unicode="D" horiz-adv-x="1517" d="M86 0v115h160v1142h-160v113h733q135 0 254 -53t208 -145.5t140.5 -217.5t51.5 -268q0 -145 -51.5 -270t-140.5 -217.5t-210 -145.5t-258 -53h-727zM539 115h102q20 0 65.5 3t99.5 20.5t112.5 52t106.5 98t79 161t31 236.5q0 135 -34 241.5t-91.5 179.5t-134 111.5 t-162.5 38.5h-174v-1142z" />
<glyph unicode="E" horiz-adv-x="1259" d="M80 0v115h160v1140h-160v115h1067v-268h-111v133h-504v-451h429v152h106v-408h-106v142h-429v-535h547v158h107v-293h-1106z" />
<glyph unicode="F" horiz-adv-x="1204" d="M86 0v115h160v1140h-160v115h1061v-270h-113v135h-495v-451h434v152h108v-408h-108v142h-434v-555h159v-115h-612z" />
<glyph unicode="G" horiz-adv-x="1576" d="M57 731q0 92 21.5 167t57.5 135.5t80 106.5t89 81q55 43 124 75.5t141.5 54t148.5 32t147 10.5q20 0 62.5 -4.5t95.5 -16.5t111.5 -33.5t113.5 -54.5l43 86h103v-366h-115q-53 143 -152.5 214.5t-263.5 71.5q-113 0 -191.5 -34.5t-131 -90t-81 -124t-44 -136t-18.5 -127 t-3 -96.5q0 -127 35 -237.5t101.5 -192.5t160.5 -128t213 -46q72 0 129.5 23.5t97 61.5t61 84t21.5 93v174h-194v115h487v-629h-96l-106 139q-57 -55 -119 -87t-120 -49t-111.5 -22.5t-96.5 -5.5q-164 0 -301 40t-264 157q-74 68 -120 141.5t-71.5 147.5t-35 142.5 t-9.5 127.5z" />
<glyph unicode="H" horiz-adv-x="1689" d="M86 0v115h160v1140h-160v115h612v-115h-159v-471h612v471h-160v115h613v-115h-160v-1140h160v-115h-613v115h160v555h-612v-555h159v-115h-612z" />
<glyph unicode="I" horiz-adv-x="800" d="M94 0v115h160v1140h-160v115h613v-115h-160v-1140h160v-115h-613z" />
<glyph unicode="J" horiz-adv-x="1087" d="M18 340h275q-1 -21 -1 -41q0 -31 2 -59q3 -47 15.5 -83t39 -57.5t73.5 -21.5q51 0 78.5 21.5t40 56t13.5 75.5t1 82v942h-178v115h631v-115h-160v-868q0 -45 -5 -103.5t-28.5 -114.5t-71 -103.5t-133.5 -71.5q-51 -16 -103 -17.5t-106 -1.5q-117 0 -191.5 36t-117.5 91.5 t-58.5 119t-15.5 118.5z" />
<glyph unicode="K" horiz-adv-x="1488" d="M86 0v115h160v1140h-160v115h612v-115h-159v-534l548 534h-165v115h497v-115h-174l-383 -372l475 -768h136v-115h-642v115h162l-342 561l-112 -111v-450h159v-115h-612z" />
<glyph unicode="L" horiz-adv-x="1146" d="M86 0v115h160v1140h-160v115h612v-115h-159v-1120h446v170h133v-305h-1032z" />
<glyph unicode="M" horiz-adv-x="2004" d="M86 0v115h160v1140h-160v115h434l475 -952l480 952h444v-115h-160v-1140h160v-115h-604v115h160v977l-480 -969h-153l-486 969v-977h160v-115h-430z" />
<glyph unicode="N" horiz-adv-x="1718" d="M86 0v115h160v1140h-160v115h434l862 -1020v905h-159v115h422v-115h-160v-1255h-162l-975 1126v-1011h160v-115h-422z" />
<glyph unicode="O" horiz-adv-x="1605" d="M35 684q0 150 61.5 280t166 225t243.5 149.5t297 54.5t297 -54.5t243.5 -149.5t166 -225t61.5 -280q0 -152 -61.5 -281t-166 -224t-243.5 -149.5t-297 -54.5t-297 54.5t-243.5 149.5t-166 224t-61.5 281zM373 684q0 -121 26.5 -230.5t79.5 -192.5t134 -133t190 -50 t189.5 50t134 133t80 192.5t26.5 230.5q0 119 -26.5 229.5t-80 193.5t-134.5 133t-189 50q-109 0 -190 -50t-134 -133t-79.5 -193.5t-26.5 -229.5z" />
<glyph unicode="P" horiz-adv-x="1232" d="M86 0v115h160v1140h-160v115h512q82 0 159 -5t142.5 -24.5t121.5 -56.5t99 -100q33 -47 50.5 -102.5t17.5 -114.5q0 -84 -25.5 -165t-96.5 -145.5t-198 -101.5q-109 -32 -274 -32q-27 0 -55 1v-409h163v-115h-616zM539 627q16 -1 35 -2q32 0 72 5q62 7 119.5 42 t96.5 105.5t39 191.5q0 109 -44 168t-103.5 85.5t-119.5 30.5q-40 3 -69 3q-14 0 -26 -1v-628z" />
<glyph unicode="Q" horiz-adv-x="1662" d="M63 684q0 152 61.5 281t166 224t244 149.5t296.5 54.5q158 0 298.5 -54.5t245 -149.5t164.5 -225t60 -280q0 -57 -13 -128t-46 -145.5t-91 -149.5t-146 -140l167 -154l-139 -153l-227 206q-135 -45 -273 -45q-158 0 -298 54.5t-244.5 149.5t-165 224t-60.5 281zM401 684 q0 -121 27 -230.5t80 -192.5t134 -133t189 -50q49 0 89.5 10t76.5 29l-163 149l147 150l172 -158q41 70 75 169t34 257q0 119 -27 229.5t-80 193.5t-134 133t-190 50t-189.5 -50t-133.5 -133t-80 -193.5t-27 -229.5z" />
<glyph unicode="R" horiz-adv-x="1376" d="M86 0v115h160v1140h-160v115h653q166 0 269.5 -40t162 -100.5t79 -130t20.5 -128.5q0 -82 -35 -143.5t-88 -104.5t-115.5 -69.5t-120.5 -39.5v-12q29 -2 57.5 -16.5t43.5 -42.5l147 -291q20 -43 40 -69.5t42.5 -43t54 -26t80.5 -15.5v-88q-27 -14 -76 -24.5t-151 -10.5 q-51 0 -89 9.5t-67.5 31t-54.5 53t-49 78.5l-178 334q-14 29 -28.5 43.5t-28 20.5t-29 7t-29.5 1h-57v-438h159v-115h-612zM539 662q20 -2 57 -4h14q31 0 67 6q44 6 89 21t82 47t60.5 83t23.5 127q0 154 -84 233.5t-219 79.5h-90v-593z" />
<glyph unicode="S" horiz-adv-x="1144" d="M74 0v360h116q6 -70 38 -125t80 -94t107.5 -59.5t121.5 -20.5q57 0 109 16.5t92 46.5t63.5 72t23.5 95q0 55 -20.5 91t-51 60.5t-66.5 41t-66 30.5l-242 102q-92 39 -147.5 91.5t-85 106.5t-40 106.5t-10.5 91.5q0 78 34 146.5t94.5 120.5t141 83t177.5 31 q78 0 160.5 -28t148.5 -77l45 82h109v-348h-127q-4 70 -35 124t-77 89t-101.5 53.5t-106.5 18.5q-35 0 -80 -9.5t-85 -32t-66.5 -60.5t-26.5 -93q0 -49 15.5 -81t42 -53.5t59.5 -34.5t67 -28l312 -127q39 -16 87 -42.5t90 -71.5t69.5 -108.5t27.5 -153.5q0 -78 -32.5 -156 t-98.5 -140.5t-165 -101.5t-232 -39q-72 0 -156 20.5t-180 102.5l-35 -98h-98z" />
<glyph unicode="T" horiz-adv-x="1263" d="M29 1112v258h1206v-258h-127v143h-330v-1140h160v-115h-612v115h159v1140h-329v-143h-127z" />
<glyph unicode="U" horiz-adv-x="1603" d="M80 1255v115h612v-115h-160v-714q0 -27 1.5 -71t10.5 -94t30.5 -100.5t63.5 -92.5t106.5 -67.5t158.5 -25.5q88 0 149.5 25.5t100.5 66.5t60.5 92.5t30.5 100.5t11 93t2 73v714h-159v115h426v-115h-160v-714q0 -51 -4 -113.5t-21.5 -125t-51.5 -122t-93 -104.5 t-147.5 -73t-215.5 -28q-152 0 -255 28t-168.5 73t-100.5 103.5t-49 118.5t-16 118.5t-2 103.5v735h-160z" />
<glyph unicode="V" horiz-adv-x="1548" d="M-57 1255v115h710v-115h-178l391 -880l416 880h-176v115h500v-115h-176l-576 -1255h-156l-602 1255h-153z" />
<glyph unicode="W" horiz-adv-x="2121" d="M-29 1255v115h617v-115h-152l266 -854l5 -34h12l4 34l332 969h194l310 -991l2 -35h10l2 35l301 876h-150v115h426v-115h-168l-438 -1255h-160l-317 987l-2 33h-10l-2 -33l-361 -987h-157l-402 1255h-162z" />
<glyph unicode="X" horiz-adv-x="1603" d="M51 0v115h158l422 555l-422 585h-129v115h622v-115h-157l278 -378l287 378h-160v115h455v-115h-164l-356 -464l495 -676h172v-115h-667v115h157l-340 469l-356 -469h150v-115h-445z" />
<glyph unicode="Y" horiz-adv-x="1392" d="M-16 1255v115h645v-115h-189l340 -606l4 -12h7l2 12l370 606h-188v115h459v-115h-162l-414 -680v-460h160v-115h-612v115h159v415l-420 725h-161z" />
<glyph unicode="Z" horiz-adv-x="1263" d="M70 0l723 1235h-547v-148h-111v283h1057l-719 -1235h610v160h111v-295h-1124z" />
<glyph unicode="[" horiz-adv-x="727" d="M160 -418v1800h452v-153h-159v-1493h159v-154h-452z" />
<glyph unicode="\" horiz-adv-x="1105" d="M72 1427h172l790 -1484h-172z" />
<glyph unicode="]" horiz-adv-x="727" d="M115 -264h159v1493h-159v153h452v-1800h-452v154z" />
<glyph unicode="^" horiz-adv-x="1077" d="M121 1221l217 299h401l217 -299h-159l-258 223l-258 -223h-160z" />
<glyph unicode="_" d="M0 -223h1079v-178h-1079v178z" />
<glyph unicode="`" horiz-adv-x="491" d="M-53 1491h332l133 -350h-129z" />
<glyph unicode="a" horiz-adv-x="1122" d="M63 307q0 80 32 140.5t83 102.5t116.5 63.5t133.5 21.5q84 0 141.5 -27.5t102.5 -75.5v203q0 84 -40 121t-126 37q-53 0 -94 -14.5t-73 -34t-54.5 -42t-34.5 -36.5l-109 127q80 47 169 70.5t206 23.5q160 0 246 -30.5t126 -71.5t47 -83t7 -67v-633h117v-102h-387v80 q-45 -47 -102.5 -76t-141.5 -29q-68 0 -132.5 21.5t-116.5 63.5t-84 103.5t-32 143.5zM350 307q0 -55 16.5 -95t43 -66.5t59.5 -39t68 -12.5q53 0 85.5 28t49.5 56v256q-20 35 -54 58.5t-81 23.5q-35 0 -68 -12t-59.5 -39t-43 -66t-16.5 -92z" />
<glyph unicode="b" horiz-adv-x="1212" d="M74 1268v102h385v-485l-10 -45h12q35 86 99.5 116.5t152.5 30.5q78 0 154.5 -28.5t137 -89t97.5 -154.5t37 -228q0 -131 -36 -227t-98.5 -159.5t-147.5 -94.5t-185 -31q-90 0 -144.5 33t-105.5 117l-133 -125h-101v1268h-114zM459 375q0 -80 16.5 -133.5t43 -84t58 -43 t64.5 -12.5q29 0 65.5 11.5t68.5 51.5t54.5 114.5t22.5 201.5q0 113 -18.5 186.5t-47 116.5t-67.5 59.5t-78 16.5q-31 0 -63.5 -12t-59 -43t-43 -83t-16.5 -134v-107v-106z" />
<glyph unicode="c" horiz-adv-x="1034" d="M74 477q0 92 29.5 184.5t89 164t150.5 116.5t214 45q72 0 133.5 -18.5t132.5 -77.5l11 -33h12l-6 35v70h121v-322h-121q-4 25 -13.5 67t-33 81.5t-64.5 69.5t-104 30q-49 0 -96.5 -23.5t-84 -75t-60.5 -135.5t-24 -202q0 -96 24 -169t63.5 -122t91 -75t108.5 -26 q78 0 137.5 41t112.5 97l64 -101q-14 -12 -43 -33.5t-73 -41t-107.5 -34t-145.5 -14.5q-115 0 -209 37t-163.5 103.5t-107.5 159t-38 202.5z" />
<glyph unicode="d" horiz-adv-x="1224" d="M86 467q0 102 25.5 196.5t78 166t132 114.5t190.5 43q90 0 152.5 -30.5t99.5 -116.5h12l-10 45v383h-150v102h420v-1268h115v-102h-338l-37 123h-12q-18 -45 -47 -74t-61.5 -45t-69.5 -22.5t-74 -6.5q-96 0 -175 35t-134.5 99.5t-86 155.5t-30.5 202zM373 481 q0 -127 21.5 -201.5t54 -114.5t69.5 -51.5t66 -11.5q33 0 64.5 12.5t58 43t43 84t16.5 133.5v106v107q0 82 -16.5 134t-43 83t-59.5 43t-63 12q-41 0 -79 -16.5t-66.5 -59.5t-47 -116.5t-18.5 -186.5z" />
<glyph unicode="e" horiz-adv-x="1044" d="M57 496q0 113 38 204t103.5 155.5t153.5 98t187 33.5q117 0 201.5 -42t139 -108.5t81 -147.5t26.5 -159q0 -16 -1 -29.5t-3 -29.5h-639q0 -23 3 -60.5t12.5 -81.5t28 -88t48 -81t72.5 -59.5t104 -22.5q100 0 166 51t117 137l86 -88q-47 -53 -90 -91t-90 -62.5t-101.5 -37 t-119.5 -12.5q-123 0 -219.5 42t-164 113t-103.5 165t-36 201zM344 573h373q1 20 1 38q0 76 -14 128q-16 64 -43.5 99.5t-61.5 49t-62 13.5q-12 0 -44 -6t-65 -37t-58.5 -97.5t-25.5 -187.5z" />
<glyph unicode="f" horiz-adv-x="679" d="M70 0v102h114v758h-114v103h114v141q0 74 32 127t84 88t116.5 52.5t130.5 17.5q88 0 139 -19.5t80 -36.5l-72 -159h-28q-6 20 -17.5 42.5t-28 42t-37 32t-42.5 12.5q-31 0 -48.5 -18.5t-25.5 -44.5t-10 -52.5t-2 -42.5v-182h166v-103h-166v-758h114v-102h-499z" />
<glyph unicode="g" horiz-adv-x="1226" d="M86 498q0 129 37 221t96.5 151.5t135 88t153.5 28.5q14 0 51 -3t78 -19.5t80 -49t59 -92.5l45 140h332v-103h-115v-905q0 -109 -41 -185.5t-108.5 -128t-155.5 -75t-184 -23.5q-49 0 -100.5 2t-101.5 13.5t-100 37t-100 72.5l119 191h29q8 -41 26.5 -82t48 -74 t71.5 -53.5t96 -20.5q76 0 122 30t70.5 79t31.5 112.5t7 131.5v112l6 29h-12q-10 -25 -28.5 -51.5t-49.5 -48t-74 -35t-102 -13.5q-92 0 -170 35t-133 100.5t-87 163t-32 224.5zM373 481q0 -127 22.5 -201.5t55 -114.5t69.5 -51.5t66 -11.5q20 0 52 8.5t60.5 37t49 82 t20.5 145.5v106v107q0 82 -16.5 134t-43 83t-59.5 43t-63 12q-41 0 -79 -16.5t-67.5 -59.5t-48 -116.5t-18.5 -186.5z" />
<glyph unicode="h" horiz-adv-x="1261" d="M74 1251v103h403v-494l-10 -37h12q35 66 105.5 115t193.5 49q102 0 160.5 -36t87.5 -89t35 -115.5t6 -115.5v-529h115v-102h-500v102h115v476q0 33 -1 76.5t-13.5 82.5t-43 66.5t-88.5 27.5q-20 0 -50 -8t-57.5 -33.5t-47 -75.5t-19.5 -136v-476h115v-102h-500v102h115 v1149h-133z" />
<glyph unicode="i" horiz-adv-x="626" d="M70 0v102h114v758h-114v103h385v-861h114v-102h-499zM176 1233q0 59 42 101t101 42t101.5 -42t42.5 -101t-42 -101t-102 -42q-59 0 -101 42t-42 101z" />
<glyph unicode="j" horiz-adv-x="579" d="M-115 -330l109 121h29q2 -86 27.5 -115.5t47.5 -29.5q31 0 49.5 16t26.5 44t10 63.5t2 76.5v1014h-114v103h385v-1065q0 -29 -4 -85.5t-32 -112.5t-88.5 -98t-174.5 -42q-66 0 -114 12t-80 30.5t-51 37t-28 30.5zM178 1233q0 59 42 101t102 42q59 0 101 -42t42 -101 t-42 -101t-101 -42t-101.5 42t-42.5 101z" />
<glyph unicode="k" horiz-adv-x="1212" d="M57 1268v102h404v-868l364 358h-114v103h381v-103h-129l-228 -223l373 -535h98v-102h-514v102h107l-242 359l-96 -94v-265h98v-102h-483v102h114v1166h-133z" />
<glyph unicode="l" horiz-adv-x="632" d="M63 1268v102h404v-1268h115v-102h-500v102h115v1166h-134z" />
<glyph unicode="m" horiz-adv-x="1792" d="M74 0v102h114v758h-114v103h385v-74l-8 -37h10q31 49 71.5 76.5t83.5 40t80 15.5t60 3q31 0 66.5 -5t70.5 -18.5t66.5 -38t54.5 -63.5v-18h12l2 18q59 68 127 96.5t152 28.5q109 0 170 -36t90.5 -84t36 -98t6.5 -79v-588h102v-102h-487v102h114v560q0 63 -12 102 t-32.5 60.5t-44 28.5t-44.5 7q-29 0 -59.5 -11t-55 -37t-41 -68t-16.5 -101v-541h115v-102h-500v102h115v560q0 27 -4 61.5t-17.5 65t-39 51t-70.5 20.5q-33 0 -63.5 -11t-55.5 -41t-40 -79t-15 -123v-504h114v-102h-499z" />
<glyph unicode="n" horiz-adv-x="1245" d="M74 0v102h114v758h-114v103h385v-103l-8 -37h12q35 66 105.5 115t193.5 49q102 0 160.5 -36t87 -89t35 -115.5t6.5 -115.5v-529h114v-102h-499v102h114v476q0 33 -1 76.5t-13 82.5t-43 66.5t-88 27.5q-29 0 -59.5 -11t-57 -39.5t-43 -78t-16.5 -124.5v-476h114v-102h-499 z" />
<glyph unicode="o" horiz-adv-x="1150" d="M74 481q0 104 39 196.5t106.5 161t157.5 108.5t192 40t192.5 -40t158 -108.5t106.5 -160.5t39 -197q0 -104 -39 -196t-106.5 -161t-157.5 -109t-193 -40q-102 0 -192 40t-157.5 109t-106.5 161t-39 196zM360 481q0 -113 16.5 -192.5t44.5 -129.5t65.5 -74t82.5 -24t83 24 t65.5 74t44 130t16.5 192q0 113 -16.5 192t-44 130t-65.5 74.5t-83 23.5q-90 0 -149.5 -98.5t-59.5 -321.5z" />
<glyph unicode="p" horiz-adv-x="1224" d="M74 -293h114v1153h-114v103h385v-78l-8 -45h10q35 86 99.5 116.5t152.5 30.5q76 0 151.5 -27.5t137 -89t99.5 -159t38 -238.5q0 -133 -37 -228t-97.5 -154.5t-136 -87.5t-155.5 -28q-92 0 -154.5 34t-97.5 114h-10l8 -45v-371h114v-102h-499v102zM459 375 q2 -92 22.5 -145.5t50 -82t59.5 -37t50 -8.5q29 0 65.5 11.5t68.5 51.5t54.5 114.5t22.5 201.5q0 129 -22.5 204t-54.5 114t-68.5 50t-65.5 11q-31 0 -62.5 -12t-58 -43t-44 -83t-17.5 -134v-107v-106z" />
<glyph unicode="q" horiz-adv-x="1224" d="M86 498q0 127 36 219t96.5 152.5t137 89t156.5 28.5q29 0 67.5 -6t76.5 -23.5t72 -50.5t52 -84l45 140h326v-103h-115v-1153h115v-102h-516v102h131v371l8 45h-10q-20 -49 -53 -79t-68 -44t-69.5 -18.5t-61.5 -4.5q-94 0 -172 35t-134 100.5t-88 163t-32 222.5zM373 481 q0 -125 21.5 -199.5t53 -113.5t68.5 -51.5t68 -12.5q18 0 49 8.5t60.5 36t51 81t21.5 145.5v106v107q0 82 -17.5 134t-44 83t-58.5 43t-62 12q-41 0 -79 -16.5t-67.5 -59.5t-47 -116.5t-17.5 -186.5z" />
<glyph unicode="r" horiz-adv-x="792" d="M80 0v102h115v758h-115v103h385v-117l-10 -37h10q39 82 100.5 130t122.5 48h14.5t31 -4t41 -12t46.5 -25l-102 -219h-29q-2 14 -8 31.5t-17.5 33t-27.5 25.5t-37 10q-49 0 -76.5 -31.5t-41 -74.5t-15.5 -88t-2 -72v-459h131v-102h-516z" />
<glyph unicode="s" horiz-adv-x="937" d="M102 702q0 57 21.5 108.5t64.5 90.5t110 62.5t159 23.5q8 0 30.5 -1t53 -8t65.5 -23.5t66 -45.5l8 -18h10l-6 24v48h125v-293h-125q1 12 1 24q0 32 -8 62q-11 41 -37 73.5t-64.5 52t-92.5 19.5q-51 0 -84.5 -11t-54 -27.5t-29 -36t-8.5 -38.5q0 -35 19.5 -58t50.5 -40.5 t66.5 -33t70.5 -29.5q86 -37 151.5 -68t109.5 -66.5t66.5 -86t22.5 -127.5q0 -66 -23.5 -112t-66.5 -87q-111 -104 -280 -105q-55 0 -97.5 9.5t-71 22.5t-48 29.5t-31.5 29.5l-10 22h-13l8 -27v-61h-120v322h120q-1 -10 -1 -20q0 -55 20 -96q22 -48 59 -78t83 -43t93 -13 q45 0 77 12t52.5 30.5t29.5 41t9 43.5q0 35 -24.5 61.5t-65.5 49t-92 43t-102 42.5q-35 14 -81 35t-87 55.5t-70 87t-29 129.5z" />
<glyph unicode="t" horiz-adv-x="757" d="M74 860v103h127v276l270 96v-372h168v-103h-168v-659v-47.5t4 -39t13.5 -26.5t29.5 -10t33.5 12t22 32.5t11.5 45.5t5 47l110 -72q-10 -29 -27.5 -58.5t-48 -54t-76.5 -40t-112 -15.5q-82 0 -129 28t-70.5 68t-29.5 85t-6 82v622h-127z" />
<glyph unicode="u" horiz-adv-x="1245" d="M80 860v103h385v-641q0 -72 15.5 -116t39 -66.5t48 -30t42.5 -7.5q25 0 55.5 10.5t57.5 42t45 91t18 155.5v459h-114v103h385v-861h114v-102h-385v84l11 39h-13l-16 -35q-6 -6 -22.5 -24.5t-46 -38t-71.5 -35t-98 -15.5q-55 0 -114.5 16.5t-108.5 53.5t-80.5 95.5 t-31.5 142.5v577h-115z" />
<glyph unicode="v" horiz-adv-x="1114" d="M0 860v103h528v-103h-116l227 -536l6 -35h12l5 35l231 536h-113v103h334v-103h-115l-364 -860h-164l-356 860h-115z" />
<glyph unicode="w" horiz-adv-x="1597" d="M0 860v103h520v-103h-117l185 -481l8 -55h12l4 55l236 584h98l211 -584l8 -53h13l4 53l194 481h-110v103h331v-103h-112l-346 -860h-117l-209 549l-18 51l-7 -51l-221 -549h-121l-333 860h-113z" />
<glyph unicode="x" horiz-adv-x="1177" d="M63 0v102h101l291 340l-291 418h-96v103h507v-103h-112l160 -221l188 221h-121v103h375v-103h-121l-260 -305l328 -453h96v-102h-530v102h112l-176 254l-217 -254h166v-102h-400z" />
<glyph unicode="y" horiz-adv-x="1189" d="M41 860v103h512v-103h-113l240 -491l12 -66h13l10 66l205 491h-117v103h346v-103h-119l-452 -1104q-37 -90 -89.5 -135t-142.5 -45q-31 0 -64.5 9t-64.5 30l72 172q33 -33 58.5 -44t47.5 -11q20 0 43 12t43 59l80 191l-432 866h-88z" />
<glyph unicode="z" horiz-adv-x="978" d="M102 0v70l445 790h-295v-166h-125v269h778l-473 -861h346v172h127v-274h-803z" />
<glyph unicode="{" d="M315 569v144q39 2 74 19.5t61.5 51t42 88t15.5 134.5q0 29 -1 59.5t-3 58.5q-2 29 -3 57.5t-1 57.5q0 109 30.5 178.5t79.5 110.5t108.5 57.5t119.5 18.5v-115q-53 -12 -83 -38t-45.5 -55.5t-19.5 -60t-4 -53.5q0 -29 2 -57.5t4 -57.5q6 -61 6 -125q0 -150 -59 -241.5 t-190 -151.5v-16q131 -59 190 -151.5t59 -241.5q0 -63 -6 -125q-2 -29 -4 -57.5t-2 -57.5q0 -23 4 -53.5t19.5 -60t45 -55.5t83.5 -38v-115q-115 4 -182.5 45t-102.5 96.5t-44 117t-9 106.5q0 29 1 57.5t3 57.5t3 59.5t1 58.5q0 88 -19.5 144.5t-48 88.5t-62.5 45t-63 15z " />
<glyph unicode="|" horiz-adv-x="1105" d="M453 -401v2156h200v-2156h-200z" />
<glyph unicode="}" d="M242 -207q51 12 81.5 38t46 55.5t19.5 60t4 53.5q0 29 -2 57.5t-4 57.5q-6 61 -6 125q0 150 59.5 241.5t190.5 151.5v16q-131 59 -190.5 151.5t-59.5 241.5q0 63 6 125q2 29 4 57.5t2 57.5q0 23 -4 53.5t-19.5 60t-46 55.5t-81.5 38v115q57 -2 117.5 -18.5t109.5 -57.5 t80 -110.5t31 -178.5q0 -29 -1 -57.5t-4 -57.5q-2 -29 -3 -59.5t-1 -58.5q0 -80 15.5 -134.5t42 -88t61.5 -51t74 -19.5v-144q-29 -2 -62.5 -15t-62.5 -45t-48.5 -88t-19.5 -145q0 -29 1 -59.5t3 -58.5q2 -29 3.5 -57.5t1.5 -57.5q0 -45 -9.5 -106.5t-44 -117t-102.5 -96 t-182 -45.5v115z" />
<glyph unicode="~" horiz-adv-x="995" d="M102 678q31 82 67 128t71.5 69.5t65.5 28.5t46 5q57 0 111.5 -24.5t102.5 -51t90 -45t79 -4.5q23 8 50.5 38t43.5 52l64 -36q-27 -72 -57.5 -118t-61.5 -72.5t-62.5 -38t-58.5 -11.5q-49 0 -70.5 9t-32.5 22.5t-20.5 29t-35 28.5t-75.5 22.5t-140 9.5q-12 0 -43 -11.5 t-72 -66.5z" />
<glyph unicode="&#xa4;" horiz-adv-x="2154" d="M362 219l228 230q-45 72 -76 158.5t-31 183.5q0 96 31 183t76 159l-228 229l138 137l227 -229q14 12 44 31.5t74 38t102.5 31.5t129.5 13q72 0 130.5 -13t102.5 -31.5t72.5 -38t44.5 -31.5l228 229l137 -137l-227 -229q45 -72 75.5 -159t30.5 -183t-30.5 -183.5 t-75.5 -158.5l227 -230l-137 -137l-228 229q-16 -12 -44.5 -31.5t-72.5 -38t-102.5 -31.5t-130.5 -13t-130 13t-102 31.5t-74 38t-44 31.5l-227 -229zM635 791q0 -92 35 -172t95 -140.5t140 -95.5t172 -35t172 35t140.5 95.5t95.5 140t35 172.5q0 92 -35 171.5t-95.5 140 t-140.5 95.5t-172 35t-172 -35t-140 -95.5t-95 -140t-35 -171.5z" />
<glyph unicode="&#xa6;" horiz-adv-x="1105" d="M453 -401v807h200v-807h-200zM453 948v807h200v-807h-200z" />
<glyph unicode="&#xa7;" d="M119 592q0 61 23.5 111.5t63.5 91.5t89 73.5t102 61.5q-59 59 -100 119.5t-41 126.5q0 39 18.5 79.5t56.5 73.5t94 53.5t130 20.5q45 0 97.5 -11.5t97.5 -37t74.5 -69.5t27.5 -107h-180q6 66 -32 95.5t-81 29.5q-37 0 -67.5 -24t-30.5 -62q0 -35 22.5 -61t48.5 -50 l287 -264q20 -18 45 -45t46.5 -61t36 -73.5t14.5 -84.5q0 -59 -23 -107.5t-60.5 -88.5t-90 -75t-113.5 -67q33 -31 63.5 -56.5t53 -52.5t36 -57.5t13.5 -69.5q0 -31 -13.5 -76t-49.5 -87t-96 -71.5t-155 -29.5q-72 0 -129 17.5t-98 49t-61.5 75.5t-14.5 100h176 q-4 -53 25 -97.5t100 -44.5q53 0 80 25.5t27 48.5q0 53 -30 84t-62 61l-301 285q-41 41 -80 100.5t-39 147.5zM334 676q0 -78 28.5 -119t63.5 -76l201 -190q35 27 70.5 77t35.5 121q0 76 -26.5 114t-67.5 77l-207 194q-98 -70 -98 -198z" />
<glyph unicode="&#xa9;" horiz-adv-x="1679" d="M131 686q0 147 55.5 276.5t151.5 225.5t225 151.5t277 55.5q147 0 276 -55.5t225.5 -151.5t151.5 -225t55 -277q0 -147 -55 -276t-151.5 -225.5t-225.5 -152t-276 -55.5t-276.5 55.5t-225.5 152t-151.5 225.5t-55.5 276zM229 686q0 -127 48.5 -237.5t131.5 -193.5 t193.5 -131t237.5 -48q125 0 236.5 48t194.5 131t131 193.5t48 237.5q0 125 -48 236.5t-131 194.5t-194.5 131t-236.5 48q-127 0 -237.5 -48t-193.5 -131t-131.5 -194.5t-48.5 -236.5zM494 668q0 90 28.5 160.5t76.5 119.5t110.5 75t128.5 26q49 0 88 -10.5t65.5 -22.5 t42 -24.5t19.5 -16.5l8 -23h8l-4 25v53h90v-242h-90q-4 29 -13.5 62t-27.5 60.5t-47 45t-68 17.5t-75.5 -18.5t-64.5 -57.5t-45 -100.5t-17 -147.5q0 -84 21.5 -141t54 -91t70.5 -48.5t73 -14.5q59 0 100 31t82 74l47 -76q-35 -35 -97.5 -63.5t-170.5 -28.5q-90 0 -163 28.5 t-124 79t-78.5 120t-27.5 149.5z" />
<glyph unicode="&#xab;" horiz-adv-x="1075" d="M131 508l260 387h176l-254 -387l254 -387h-176zM512 508l260 387h176l-254 -387l254 -387h-176z" />
<glyph unicode="&#xac;" horiz-adv-x="1435" d="M156 406v178h1124v-383h-184v205h-940z" />
<glyph unicode="&#xad;" horiz-adv-x="718" d="M98 406v184h523v-184h-523z" />
<glyph unicode="&#xae;" horiz-adv-x="1679" d="M131 686q0 147 55.5 276.5t151.5 225.5t225 151.5t277 55.5q147 0 276 -55.5t225.5 -151.5t151.5 -225t55 -277q0 -147 -55 -276t-151.5 -225.5t-225.5 -152t-276 -55.5t-276.5 55.5t-225.5 152t-151.5 225.5t-55.5 276zM229 686q0 -127 48.5 -237.5t131.5 -193.5 t193.5 -131t237.5 -48q125 0 236.5 48t194.5 131t131 193.5t48 237.5q0 125 -48 236.5t-131 194.5t-194.5 131t-236.5 48q-127 0 -237.5 -48t-193.5 -131t-131.5 -194.5t-48.5 -236.5zM518 305v62h88v626h-88v62h359q94 0 152 -22.5t89 -55.5t41 -70t10 -63q0 -84 -53 -129 t-143 -74v-6q16 -2 30.5 -10.5t22.5 -22.5l80 -158q25 -47 46.5 -62t74.5 -22v-49q-18 -10 -37 -13t-41 -5h-47q-23 0 -41.5 3t-35.5 12t-32.5 27.5t-34.5 51.5l-98 180q-18 35 -28.5 38t-32.5 3h-33v-241h90v-62h-338zM766 668h78q20 0 44.5 8t45 26.5t35 47t14.5 71.5 q0 63 -21.5 98t-50 51.5t-56.5 19.5t-38 3h-51v-325z" />
<glyph unicode="&#xb0;" horiz-adv-x="1081" d="M180 1219q0 74 29 139t78 114.5t114.5 78t139.5 28.5t139 -28.5t114.5 -78t78 -115t28.5 -138.5q0 -74 -28.5 -139.5t-78 -115t-115 -78t-138.5 -28.5q-74 0 -139.5 28.5t-114.5 78t-78 115t-29 139.5zM324 1219q0 -92 62.5 -155t154.5 -63t154.5 62.5t62.5 155.5 q0 92 -62.5 154.5t-154.5 62.5t-154.5 -62.5t-62.5 -154.5z" />
<glyph unicode="&#xb1;" horiz-adv-x="1077" d="M-23 0v172h1123v-172h-1123zM-23 872v172h476v476h172v-476h475v-172h-475v-475h-172v475h-476z" />
<glyph unicode="&#xb6;" horiz-adv-x="1087" d="M57 1118q0 47 15.5 93t50.5 83t89 59.5t132 22.5h201v-1949h-172v1433h-29q-78 0 -132 22.5t-89 59.5t-50.5 83t-15.5 93zM766 -573v1949h172v-1949h-172z" />
<glyph unicode="&#xb7;" horiz-adv-x="471" d="M72 698q0 68 48 116t116 48t115.5 -48t47.5 -116t-48 -115.5t-115 -47.5q-68 0 -116 47.5t-48 115.5z" />
<glyph unicode="&#xbb;" horiz-adv-x="1077" d="M127 121l254 387l-254 387h176l260 -387l-260 -387h-176zM510 121l254 387l-254 387h176l260 -387l-260 -387h-176z" />
<glyph unicode="&#x2000;" horiz-adv-x="877" />
<glyph unicode="&#x2001;" horiz-adv-x="1755" />
<glyph unicode="&#x2002;" horiz-adv-x="877" />
<glyph unicode="&#x2003;" horiz-adv-x="1755" />
<glyph unicode="&#x2004;" horiz-adv-x="585" />
<glyph unicode="&#x2005;" horiz-adv-x="438" />
<glyph unicode="&#x2006;" horiz-adv-x="292" />
<glyph unicode="&#x2007;" horiz-adv-x="292" />
<glyph unicode="&#x2008;" horiz-adv-x="219" />
<glyph unicode="&#x2009;" horiz-adv-x="351" />
<glyph unicode="&#x200a;" horiz-adv-x="97" />
<glyph unicode="&#x2010;" horiz-adv-x="718" d="M98 406v184h523v-184h-523z" />
<glyph unicode="&#x2011;" horiz-adv-x="718" d="M98 406v184h523v-184h-523z" />
<glyph unicode="&#x2012;" horiz-adv-x="718" d="M98 406v184h523v-184h-523z" />
<glyph unicode="&#x2013;" horiz-adv-x="1435" d="M156 406v176h1124v-176h-1124z" />
<glyph unicode="&#x2014;" horiz-adv-x="2240" d="M63 406v176h2114v-176h-2114z" />
<glyph unicode="&#x2018;" horiz-adv-x="419" d="M57 815l162 555h143v-555h-305z" />
<glyph unicode="&#x2019;" horiz-adv-x="419" d="M57 815v555h305l-161 -555h-144z" />
<glyph unicode="&#x201a;" horiz-adv-x="538" d="M117 -246v555h305l-162 -555h-143z" />
<glyph unicode="&#x201c;" horiz-adv-x="1005" d="M106 838l162 555h144v-555h-306zM594 838l162 555h143v-555h-305z" />
<glyph unicode="&#x201d;" horiz-adv-x="1005" d="M106 838v555h306l-162 -555h-144zM594 838v555h305l-162 -555h-143z" />
<glyph unicode="&#x201e;" horiz-adv-x="1005" d="M106 -246v555h306l-162 -555h-144zM594 -246v555h305l-162 -555h-143z" />
<glyph unicode="&#x2022;" horiz-adv-x="1077" d="M252 803q0 59 22.5 111.5t61.5 91t91 61.5t112 23q59 0 111 -23t91 -61.5t61.5 -91t22.5 -111.5t-22.5 -111.5t-61.5 -91.5t-91 -61.5t-111 -22.5t-111.5 22.5t-91.5 61.5t-61.5 91.5t-22.5 111.5z" />
<glyph unicode="&#x2026;" horiz-adv-x="1863" d="M170 141q0 68 48 116t116 48t116 -48t48 -116t-48.5 -116t-115.5 -48q-68 0 -116 48t-48 116zM768 141q0 68 48 116t116 48t116 -48t48 -116t-48.5 -116t-115.5 -48q-68 0 -116 48t-48 116zM1366 141q0 68 48 116t116 48t116 -48t48 -116t-48.5 -116t-115.5 -48 q-68 0 -116 48t-48 116z" />
<glyph unicode="&#x202f;" horiz-adv-x="351" />
<glyph unicode="&#x2039;" horiz-adv-x="722" d="M143 508l260 387h177l-254 -387l254 -387h-177z" />
<glyph unicode="&#x203a;" horiz-adv-x="722" d="M143 121l254 387l-254 387h176l261 -387l-261 -387h-176z" />
<glyph unicode="&#x205f;" horiz-adv-x="438" />
<glyph unicode="&#x2122;" horiz-adv-x="2191" d="M229 1145v225h725v-225h-90v168h-209v-631h123v-57h-372v57h122v631h-209v-168h-90zM1098 625v57h123v631h-123v57h278l223 -469l7 -29h10l6 27l207 471h276v-57h-123v-631h123v-57h-372v57h122v594l5 35l-9 2l-12 -37l-254 -567h-31l-264 567l-10 37l-8 -2l2 -35v-594 h123v-57h-299z" />
<glyph unicode="&#xe000;" horiz-adv-x="962" d="M0 0v963h963v-963h-963z" />
</font>
</defs>
</svg>
